<svg width="156" height="32" viewBox="0 0 156 32" fill="none" xmlns="http://www.w3.org/2000/svg">
<path d="M18.12 25.6893C18.1487 22.7521 17.4041 20.3636 16.4569 20.3544C15.5096 20.3452 14.7184 22.7187 14.6898 25.6557C14.661 28.5929 15.4057 30.9814 16.3529 30.9907C17.3001 30.9999 18.0913 28.6264 18.12 25.6893Z" fill="white"/>
<path d="M12.6262 25.0222C14.2384 22.5669 14.9034 20.155 14.1116 19.6351C13.3197 19.1151 11.3709 20.684 9.7587 23.1393C8.14647 25.5946 7.48145 28.0065 8.27326 28.5265C9.06513 29.0464 11.0139 27.4775 12.6262 25.0222Z" fill="white"/>
<path d="M8.35877 21.4995C11.0425 20.3058 12.906 18.6364 12.521 17.7709C12.136 16.9053 9.64837 17.1714 6.96459 18.3652C4.28084 19.559 2.41734 21.2283 2.80233 22.0939C3.18731 22.9594 5.67502 22.6933 8.35877 21.4995Z" fill="white"/>
<path d="M12.1988 15.3437C12.3429 14.4074 10.1063 13.2862 7.20324 12.8394C4.30013 12.3925 1.82989 12.7893 1.68579 13.7256C1.54169 14.6618 3.77828 15.783 6.68137 16.2298C9.58442 16.6767 12.0547 16.2799 12.1988 15.3437Z" fill="white"/>
<path d="M13.2413 13.1133C13.8686 12.4035 12.5929 10.2513 10.392 8.3061C8.19115 6.36096 5.89842 5.35952 5.27111 6.06931C4.64379 6.77913 5.91944 8.93138 8.12036 10.8765C10.3213 12.8217 12.614 13.8231 13.2413 13.1133Z" fill="white"/>
<path d="M15.3171 11.8098C16.2286 11.5519 16.3191 9.05158 15.5194 6.2253C14.7196 3.39901 13.3324 1.31693 12.4209 1.57486C11.5094 1.83278 11.4188 4.33303 12.2186 7.15936C13.0183 9.9856 14.4056 12.0677 15.3171 11.8098Z" fill="white"/>
<path d="M20.9533 7.24729C21.8087 4.4373 21.7675 1.93575 20.8612 1.6599C19.955 1.38405 18.527 3.43836 17.6716 6.24833C16.8163 9.05829 16.8575 11.5599 17.7638 11.8357C18.67 12.1115 20.098 10.0573 20.9533 7.24729Z" fill="white"/>
<path d="M24.9811 11.0442C27.2196 9.1424 28.5371 7.01548 27.9237 6.29358C27.3104 5.57166 24.9985 6.52812 22.7601 8.42982C20.5216 10.3316 19.2041 12.4585 19.8174 13.1804C20.4307 13.9023 22.7426 12.9459 24.9811 11.0442Z" fill="white"/>
<path d="M26.3125 16.4172C29.2238 16.0277 31.4821 14.9509 31.3564 14.0119C31.2309 13.073 28.7689 12.6277 25.8576 13.0171C22.9463 13.4066 20.688 14.4835 20.8136 15.4224C20.9392 16.3613 23.4011 16.8067 26.3125 16.4172Z" fill="white"/>
<path d="M30.0683 22.3622C30.4702 21.5045 28.64 19.7987 25.9803 18.5522C23.3207 17.3058 20.8387 16.9907 20.4367 17.8484C20.0347 18.7062 21.8649 20.412 24.5246 21.6585C27.1843 22.9049 29.6663 23.22 30.0683 22.3622Z" fill="white"/>
<path d="M24.4736 28.6911C25.2755 28.1869 24.6582 25.7624 23.0947 23.2758C21.5313 20.7892 19.6137 19.1822 18.8118 19.6864C18.0099 20.1906 18.6272 22.6152 20.1907 25.1017C21.7541 27.5883 23.6717 29.1954 24.4736 28.6911Z" fill="white"/>
<path d="M39.1558 24.5V7.796H41.2206V22.5396H48.9694V24.5H39.1558ZM50.7636 9.7564V7.622H52.8284V9.7564H50.7636ZM50.7636 24.5V11.972H52.8284V24.5H50.7636ZM57.1038 24.5V11.2876C57.1038 10.9628 57.1192 10.6341 57.1502 10.3016C57.1811 9.96133 57.2507 9.63267 57.359 9.3156C57.4672 8.9908 57.6451 8.69307 57.8926 8.4224C58.1787 8.10533 58.4919 7.88107 58.8322 7.7496C59.1724 7.6104 59.5166 7.52534 59.8646 7.4944C60.2203 7.46347 60.5567 7.448 60.8738 7.448H62.463V9.1648H60.9898C60.3788 9.1648 59.9226 9.3156 59.621 9.6172C59.3194 9.91107 59.1686 10.3596 59.1686 10.9628V24.5H57.1038ZM54.981 13.6772V11.972H62.463V13.6772H54.981ZM68.8901 24.848C67.6605 24.848 66.5856 24.5773 65.6653 24.036C64.7528 23.4869 64.0413 22.7252 63.5309 21.7508C63.0205 20.7687 62.7653 19.6241 62.7653 18.3172C62.7653 16.9484 63.0166 15.7652 63.5193 14.7676C64.022 13.7623 64.7218 12.9889 65.6189 12.4476C66.5237 11.8985 67.5832 11.624 68.7973 11.624C70.0578 11.624 71.1289 11.914 72.0105 12.494C72.8998 13.074 73.5649 13.9015 74.0057 14.9764C74.4542 16.0513 74.6476 17.3312 74.5857 18.816H72.4977V18.0736C72.4745 16.5347 72.1613 15.3863 71.5581 14.6284C70.9549 13.8628 70.0578 13.48 68.8669 13.48C67.5909 13.48 66.6204 13.8899 65.9553 14.7096C65.2902 15.5293 64.9577 16.7048 64.9577 18.236C64.9577 19.7131 65.2902 20.8576 65.9553 21.6696C66.6204 22.4816 67.5677 22.8876 68.7973 22.8876C69.6248 22.8876 70.344 22.6981 70.9549 22.3192C71.5658 21.9403 72.0453 21.3951 72.3933 20.6836L74.3769 21.368C73.8897 22.4739 73.155 23.3323 72.1729 23.9432C71.1985 24.5464 70.1042 24.848 68.8901 24.848ZM64.2617 18.816V17.1572H73.5185V18.816H64.2617ZM83.7631 24.5C83.0207 24.6469 82.2861 24.7049 81.5591 24.674C80.8399 24.6508 80.1981 24.5077 79.6335 24.2448C79.069 23.9741 78.6398 23.5565 78.3459 22.992C78.0985 22.4971 77.9631 21.9983 77.9399 21.4956C77.9245 20.9852 77.9167 20.4091 77.9167 19.7672V8.492H79.9815V19.6744C79.9815 20.1848 79.9854 20.6217 79.9931 20.9852C80.0086 21.3487 80.0898 21.6619 80.2367 21.9248C80.5151 22.4197 80.9559 22.7097 81.5591 22.7948C82.1701 22.8799 82.9047 22.8567 83.7631 22.7252V24.5ZM75.3763 13.6772V11.972H83.7631V13.6772H75.3763ZM86.1386 9.7564V7.622H88.2034V9.7564H86.1386ZM86.1386 24.5V11.972H88.2034V24.5H86.1386ZM106.26 24.5L106.271 16.4844C106.271 15.5487 106.02 14.8179 105.517 14.292C105.022 13.7584 104.376 13.4916 103.58 13.4916C103.116 13.4916 102.675 13.5999 102.258 13.8164C101.84 14.0252 101.5 14.3577 101.237 14.814C100.974 15.2625 100.842 15.8387 100.842 16.5424L99.752 16.1016C99.7365 15.2123 99.9182 14.4351 100.297 13.77C100.684 13.0972 101.21 12.5752 101.875 12.204C102.54 11.8328 103.29 11.6472 104.125 11.6472C105.432 11.6472 106.461 12.0455 107.211 12.842C107.961 13.6308 108.336 14.6941 108.336 16.032L108.324 24.5H106.26ZM91.2724 24.5V11.972H93.1168V15.3244H93.3488V24.5H91.2724ZM98.7776 24.5L98.7892 16.5656C98.7892 15.6067 98.5417 14.8565 98.0468 14.3152C97.5518 13.7661 96.8945 13.4916 96.0748 13.4916C95.2628 13.4916 94.6054 13.77 94.1028 14.3268C93.6001 14.8836 93.3488 15.6221 93.3488 16.5424L92.2584 15.8928C92.2584 15.0808 92.4517 14.3539 92.8384 13.712C93.225 13.0701 93.7509 12.5675 94.416 12.204C95.081 11.8328 95.835 11.6472 96.678 11.6472C97.5209 11.6472 98.2556 11.8251 98.882 12.1808C99.5084 12.5365 99.9917 13.0469 100.332 13.712C100.672 14.3693 100.842 15.1543 100.842 16.0668L100.831 24.5H98.7776ZM116.273 24.848C115.043 24.848 113.968 24.5773 113.048 24.036C112.136 23.4869 111.424 22.7252 110.914 21.7508C110.403 20.7687 110.148 19.6241 110.148 18.3172C110.148 16.9484 110.399 15.7652 110.902 14.7676C111.405 13.7623 112.105 12.9889 113.002 12.4476C113.907 11.8985 114.966 11.624 116.18 11.624C117.441 11.624 118.512 11.914 119.393 12.494C120.283 13.074 120.948 13.9015 121.389 14.9764C121.837 16.0513 122.03 17.3312 121.969 18.816H119.881V18.0736C119.857 16.5347 119.544 15.3863 118.941 14.6284C118.338 13.8628 117.441 13.48 116.25 13.48C114.974 13.48 114.003 13.8899 113.338 14.7096C112.673 15.5293 112.341 16.7048 112.341 18.236C112.341 19.7131 112.673 20.8576 113.338 21.6696C114.003 22.4816 114.951 22.8876 116.18 22.8876C117.008 22.8876 117.727 22.6981 118.338 22.3192C118.949 21.9403 119.428 21.3951 119.776 20.6836L121.76 21.368C121.273 22.4739 120.538 23.3323 119.556 23.9432C118.581 24.5464 117.487 24.848 116.273 24.848ZM111.645 18.816V17.1572H120.901V18.816H111.645ZM122.991 24.5L128.582 7.796H131.459L137.05 24.5H134.904L129.673 9.0024H130.322L125.137 24.5H122.991ZM125.682 20.5908V18.6536H134.359V20.5908H125.682ZM138.727 24.5V11.972H140.571V14.9996L140.27 14.6052C140.417 14.2185 140.606 13.8628 140.838 13.538C141.078 13.2132 141.345 12.9464 141.639 12.7376C141.963 12.4747 142.331 12.2736 142.741 12.1344C143.15 11.9952 143.568 11.914 143.993 11.8908C144.419 11.8599 144.817 11.8869 145.188 11.972V13.9092C144.755 13.7932 144.279 13.7623 143.761 13.8164C143.243 13.8705 142.764 14.06 142.323 14.3848C141.921 14.6709 141.608 15.0189 141.383 15.4288C141.167 15.8387 141.016 16.2833 140.931 16.7628C140.846 17.2345 140.803 17.7179 140.803 18.2128V24.5H138.727ZM153.976 24.5C153.234 24.6469 152.499 24.7049 151.772 24.674C151.053 24.6508 150.411 24.5077 149.847 24.2448C149.282 23.9741 148.853 23.5565 148.559 22.992C148.312 22.4971 148.176 21.9983 148.153 21.4956C148.138 20.9852 148.13 20.4091 148.13 19.7672V8.492H150.195V19.6744C150.195 20.1848 150.199 20.6217 150.206 20.9852C150.222 21.3487 150.303 21.6619 150.45 21.9248C150.728 22.4197 151.169 22.7097 151.772 22.7948C152.383 22.8799 153.118 22.8567 153.976 22.7252V24.5ZM145.59 13.6772V11.972H153.976V13.6772H145.59Z" fill="white"/>
</svg>
