<svg width="25" height="25" viewBox="0 0 25 25" fill="none" xmlns="http://www.w3.org/2000/svg">
<path d="M21.5 12.6255C21.5 12.8244 21.421 13.0152 21.2803 13.1558C21.1397 13.2965 20.9489 13.3755 20.75 13.3755H13.25V20.8755C13.25 21.0744 13.171 21.2652 13.0303 21.4058C12.8897 21.5465 12.6989 21.6255 12.5 21.6255C12.3011 21.6255 12.1103 21.5465 11.9697 21.4058C11.829 21.2652 11.75 21.0744 11.75 20.8755V13.3755L4.25 13.3755C4.05109 13.3755 3.86032 13.2965 3.71967 13.1558C3.57902 13.0152 3.5 12.8244 3.5 12.6255C3.5 12.4266 3.57902 12.2358 3.71967 12.0952C3.86032 11.9545 4.05109 11.8755 4.25 11.8755L11.75 11.8755L11.75 4.37549C11.75 4.17658 11.829 3.98581 11.9697 3.84516C12.1103 3.70451 12.3011 3.62549 12.5 3.62549C12.6989 3.62549 12.8897 3.70451 13.0303 3.84516C13.171 3.98581 13.25 4.17658 13.25 4.37549L13.25 11.8755H20.75C20.9489 11.8755 21.1397 11.9545 21.2803 12.0952C21.421 12.2358 21.5 12.4266 21.5 12.6255Z" fill="#101014"/>
</svg>
