<svg width="25" height="25" viewBox="0 0 25 25" fill="none" xmlns="http://www.w3.org/2000/svg">
<path d="M8.9001 6.825C9.00516 6.74621 9.12471 6.68888 9.25192 6.65629C9.37913 6.62369 9.51152 6.61648 9.64152 6.63505C9.77152 6.65362 9.8966 6.69762 10.0096 6.76453C10.1226 6.83143 10.2213 6.91994 10.3001 7.025C10.3789 7.13006 10.4362 7.24961 10.4688 7.37682C10.5014 7.50403 10.5086 7.63642 10.49 7.76642C10.4715 7.89642 10.4275 8.02149 10.3606 8.13449C10.2937 8.24749 10.2052 8.34621 10.1001 8.425C8.5361 9.598 7.6401 10.739 7.1271 11.735C7.83147 11.5537 8.57483 11.5963 9.25386 11.857C9.93289 12.1176 10.5138 12.5833 10.916 13.1894C11.3181 13.7954 11.5215 14.5117 11.4978 15.2386C11.474 15.9656 11.2244 16.6671 10.7836 17.2456C10.3429 17.8242 9.73277 18.251 9.0382 18.4669C8.34362 18.6827 7.59907 18.6768 6.90801 18.4499C6.21696 18.2231 5.61374 17.7866 5.18221 17.2011C4.75067 16.6156 4.51226 15.9102 4.5001 15.183C4.37339 13.955 4.54775 12.7145 5.0081 11.569C5.6051 10.063 6.7721 8.421 8.9001 6.825ZM17.9001 6.825C18.0052 6.74621 18.1247 6.68888 18.2519 6.65629C18.3791 6.62369 18.5115 6.61648 18.6415 6.63505C18.7715 6.65362 18.8966 6.69762 19.0096 6.76453C19.1226 6.83143 19.2213 6.91994 19.3001 7.025C19.3789 7.13006 19.4362 7.24961 19.4688 7.37682C19.5014 7.50403 19.5086 7.63642 19.4901 7.76642C19.4715 7.89642 19.4275 8.02149 19.3606 8.13449C19.2937 8.24749 19.2052 8.34621 19.1001 8.425C17.5361 9.598 16.6401 10.739 16.1271 11.735C16.8315 11.5537 17.5748 11.5963 18.2539 11.857C18.9329 12.1176 19.5138 12.5833 19.916 13.1894C20.3181 13.7954 20.5215 14.5117 20.4978 15.2386C20.474 15.9656 20.2244 16.6671 19.7836 17.2456C19.3429 17.8242 18.7328 18.251 18.0382 18.4669C17.3436 18.6827 16.5991 18.6768 15.908 18.4499C15.217 18.2231 14.6137 17.7866 14.1822 17.2011C13.7507 16.6156 13.5123 15.9102 13.5001 15.183C13.3734 13.955 13.5477 12.7145 14.0081 11.569C14.6061 10.063 15.7721 8.421 17.9001 6.825Z" fill="#101014"/>
</svg>
