<svg width="41" height="41" viewBox="0 0 41 41" fill="none" xmlns="http://www.w3.org/2000/svg">
<g clip-path="url(#clip0_1_2355)">
<g clip-path="url(#clip1_1_2355)">
<g clip-path="url(#clip2_1_2355)">
<path d="M36.0738 30.6075L36.0672 30.6074C35.9807 30.6074 35.8976 30.6418 35.8364 30.703C35.7752 30.7642 35.7408 30.8473 35.7408 30.9338C35.7426 33.3514 33.7843 35.3127 31.3667 35.3145H30.7139C30.6273 35.3145 30.5443 35.3488 30.4831 35.4101C30.4218 35.4713 30.3875 35.5543 30.3875 35.6409C30.3875 35.7275 30.4218 35.8105 30.4831 35.8717C30.5443 35.9329 30.6273 35.9673 30.7139 35.9673H31.3667C34.1415 35.9637 36.3901 33.7151 36.3937 30.9404C36.3954 30.8538 36.3627 30.7701 36.3027 30.7077C36.2427 30.6453 36.1604 30.6092 36.0738 30.6075ZM29.2384 35.3145H28.4485C28.3619 35.3145 28.2789 35.3488 28.2177 35.4101C28.1565 35.4713 28.1221 35.5543 28.1221 35.6409C28.1221 35.7275 28.1565 35.8105 28.2177 35.8717C28.2789 35.9329 28.3619 35.9673 28.4485 35.9673H29.2384C29.325 35.9673 29.408 35.9329 29.4693 35.8717C29.5305 35.8105 29.5649 35.7275 29.5649 35.6409C29.5649 35.5543 29.5305 35.4713 29.4693 35.4101C29.408 35.3488 29.325 35.3145 29.2384 35.3145Z" fill="black"/>
<path d="M38.9593 26.2563H29.3494L29.3821 26.2008L29.9664 25.5969C30.0099 25.5506 30.039 25.4925 30.05 25.4299C30.061 25.3673 30.0535 25.3028 30.0284 25.2444C30.0029 25.186 29.9609 25.1363 29.9075 25.1015C29.8542 25.0667 29.7918 25.0483 29.7281 25.0485H22.4912C22.113 25.05 21.7442 25.1662 21.4335 25.3819C21.1228 25.5975 20.885 25.9025 20.7514 26.2563H2.3672V6.01801C2.369 3.39854 4.49394 1.27654 7.11341 1.27834H9.76724C12.2649 1.28715 14.3276 3.2315 14.4841 5.72423H13.5048C13.4296 5.72481 13.357 5.75133 13.2991 5.79931L9.30698 9.10272C9.25536 9.1457 9.21826 9.20356 9.20073 9.2684C9.18321 9.33325 9.18611 9.40192 9.20905 9.46505C9.23132 9.52875 9.27278 9.58398 9.32773 9.62315C9.38268 9.66231 9.44841 9.68349 9.51589 9.68376H20.0822C20.1497 9.68349 20.2154 9.66231 20.2704 9.62315C20.3253 9.58398 20.3668 9.52875 20.3891 9.46505C20.412 9.40192 20.4149 9.33325 20.3974 9.2684C20.3799 9.20356 20.3428 9.1457 20.2911 9.10272L16.2925 5.79931C16.2337 5.75065 16.1598 5.72408 16.0835 5.72423H15.1369C14.9794 2.86712 12.6189 0.629814 9.75744 0.625489H7.11667C4.1361 0.623694 1.71795 3.03744 1.71436 6.01801V30.3529C1.71917 34.2453 4.57203 37.548 8.42237 38.1186L7.60957 40.1783C7.59033 40.228 7.58353 40.2816 7.58979 40.3345C7.59605 40.3875 7.61517 40.438 7.64548 40.4819C7.67511 40.5257 7.71495 40.5617 7.76158 40.5867C7.80821 40.6117 7.86023 40.625 7.91315 40.6255H9.72807C9.79344 40.6256 9.85733 40.606 9.91146 40.5693C9.96558 40.5327 10.0075 40.4806 10.0316 40.4198L10.9065 38.2002H30.1067L30.9815 40.4198C31.0057 40.4806 31.0476 40.5327 31.1017 40.5693C31.1558 40.606 31.2197 40.6256 31.2851 40.6255H33.0772C33.1301 40.625 33.1821 40.6117 33.2287 40.5867C33.2754 40.5617 33.3152 40.5257 33.3448 40.4819C33.3752 40.438 33.3943 40.3875 33.4005 40.3345C33.4068 40.2816 33.4 40.228 33.3807 40.1783L32.5777 38.1186C36.4281 37.548 39.2809 34.2453 39.2858 30.3529V26.5827C39.2858 26.4962 39.2514 26.4131 39.1902 26.3519C39.1289 26.2907 39.0459 26.2563 38.9593 26.2563ZM15.9791 6.37708L19.1878 9.03091H10.4233L13.6452 6.37708H15.9791ZM21.2867 26.9092C21.2867 26.2439 21.826 25.7046 22.4912 25.7046H28.9577L28.8924 25.7699L28.8663 25.7993C28.6284 26.1204 28.5002 26.5095 28.5007 26.9092V33.5192H27.1624V32.4094C27.1624 32.3228 27.128 32.2398 27.0668 32.1786C27.0055 32.1174 26.9225 32.083 26.8359 32.083C26.7494 32.083 26.6663 32.1174 26.6051 32.1786C26.5439 32.2398 26.5095 32.3228 26.5095 32.4094V33.5192H25.0863V32.4094C25.0863 32.3228 25.0519 32.2398 24.9907 32.1786C24.9295 32.1174 24.8465 32.083 24.7599 32.083C24.6733 32.083 24.5903 32.1174 24.5291 32.1786C24.4679 32.2398 24.4335 32.3228 24.4335 32.4094V33.5192H23.0103V32.4094C23.0103 32.3228 22.9759 32.2398 22.9146 32.1786C22.8534 32.1174 22.7704 32.083 22.6838 32.083C22.5973 32.083 22.5142 32.1174 22.453 32.1786C22.3918 32.2398 22.3574 32.3228 22.3574 32.4094V33.5192H21.2867V26.9092ZM2.3672 26.9092H20.6469L20.6339 27.895C20.5913 27.8779 20.5459 27.869 20.5001 27.8688H2.3672V26.9092ZM9.49304 39.9726H8.40278L9.10786 38.1838H10.1916L9.49304 39.9726ZM32.5973 39.9726H31.5071L30.8085 38.2002H31.8923L32.5973 39.9726ZM38.6199 30.3529C38.6163 34.3184 35.4073 37.5347 31.4418 37.5473H9.57138C5.60974 37.5365 2.40083 34.3276 2.39005 30.366V28.5217H20.5001C20.5461 28.5204 20.5915 28.5104 20.6339 28.4923V33.8457C20.6339 33.9322 20.6683 34.0153 20.7295 34.0765C20.7907 34.1377 20.8737 34.1721 20.9603 34.1721H28.8271C28.9137 34.1721 28.9967 34.1377 29.0579 34.0765C29.1192 34.0153 29.1536 33.9322 29.1536 33.8457V28.5217H38.6199V30.3529ZM38.6329 27.8688H29.1666V26.8896C29.1899 26.8984 29.2139 26.9049 29.2384 26.9092H38.6329V27.8688Z" fill="black"/>
<path d="M19.9974 10.7153H9.60084C9.51427 10.7153 9.43124 10.7497 9.37002 10.8109C9.30881 10.8722 9.27441 10.9552 9.27441 11.0418C9.27441 11.1283 9.30881 11.2114 9.37002 11.2726C9.43124 11.3338 9.51427 11.3682 9.60084 11.3682H19.9974C20.084 11.3682 20.167 11.3338 20.2283 11.2726C20.2895 11.2114 20.3239 11.1283 20.3239 11.0418C20.3239 10.9552 20.2895 10.8722 20.2283 10.8109C20.167 10.7497 20.084 10.7153 19.9974 10.7153ZM10.1982 13.0362C10.1116 13.0362 10.0286 13.0706 9.96738 13.1318C9.90616 13.193 9.87177 13.2761 9.87177 13.3626V14.3745C9.87177 14.4611 9.90616 14.5441 9.96738 14.6054C10.0286 14.6666 10.1116 14.701 10.1982 14.701C10.2848 14.701 10.3678 14.6666 10.429 14.6054C10.4902 14.5441 10.5246 14.4611 10.5246 14.3745V13.3626C10.5246 13.2761 10.4902 13.193 10.429 13.1318C10.3678 13.0706 10.2848 13.0362 10.1982 13.0362ZM10.1982 20.0706C10.1116 20.0706 10.0286 20.105 9.96738 20.1663C9.90616 20.2275 9.87177 20.3105 9.87177 20.3971V21.7321C9.87177 21.8187 9.90616 21.9017 9.96738 21.963C10.0286 22.0242 10.1116 22.0586 10.1982 22.0586C10.2848 22.0586 10.3678 22.0242 10.429 21.963C10.4902 21.9017 10.5246 21.8187 10.5246 21.7321V20.3971C10.5246 20.3105 10.4902 20.2275 10.429 20.1663C10.3678 20.105 10.2848 20.0706 10.1982 20.0706ZM10.1982 16.7313C10.1116 16.7313 10.0286 16.7657 9.96738 16.8269C9.90616 16.8882 9.87177 16.9712 9.87177 17.0578V17.4429C9.87177 17.5295 9.90616 17.6125 9.96738 17.6737C10.0286 17.735 10.1116 17.7694 10.1982 17.7694C10.2848 17.7694 10.3678 17.735 10.429 17.6737C10.4902 17.6125 10.5246 17.5295 10.5246 17.4429V17.0578C10.5246 16.9712 10.4902 16.8882 10.429 16.8269C10.3678 16.7657 10.2848 16.7313 10.1982 16.7313ZM10.1982 23.1586C10.1116 23.1586 10.0286 23.193 9.96738 23.2542C9.90616 23.3154 9.87177 23.3985 9.87177 23.485V23.8898C9.87177 23.9764 9.90616 24.0594 9.96738 24.1206C10.0286 24.1818 10.1116 24.2162 10.1982 24.2162C10.2848 24.2162 10.3678 24.1818 10.429 24.1206C10.4902 24.0594 10.5246 23.9764 10.5246 23.8898V23.485C10.5246 23.3985 10.4902 23.3154 10.429 23.2542C10.3678 23.193 10.2848 23.1586 10.1982 23.1586ZM12.4995 16.1046C12.4129 16.1046 12.3299 16.139 12.2687 16.2002C12.2075 16.2614 12.1731 16.3444 12.1731 16.431V18.197C12.1731 18.2835 12.2075 18.3666 12.2687 18.4278C12.3299 18.489 12.4129 18.5234 12.4995 18.5234C12.5861 18.5234 12.6691 18.489 12.7303 18.4278C12.7915 18.3666 12.8259 18.2835 12.8259 18.197V16.431C12.8259 16.3444 12.7915 16.2614 12.7303 16.2002C12.6691 16.139 12.5861 16.1046 12.4995 16.1046ZM12.4995 13.0362C12.4129 13.0362 12.3299 13.0706 12.2687 13.1318C12.2075 13.193 12.1731 13.2761 12.1731 13.3626V13.7478C12.1731 13.8344 12.2075 13.9174 12.2687 13.9786C12.3299 14.0398 12.4129 14.0742 12.4995 14.0742C12.5861 14.0742 12.6691 14.0398 12.7303 13.9786C12.7915 13.9174 12.8259 13.8344 12.8259 13.7478V13.3626C12.8259 13.2761 12.7915 13.193 12.7303 13.1318C12.6691 13.0706 12.5861 13.0362 12.4995 13.0362ZM12.4995 19.532C12.4129 19.532 12.3299 19.5664 12.2687 19.6277C12.2075 19.6889 12.1731 19.7719 12.1731 19.8585V20.2469C12.1731 20.3335 12.2075 20.4165 12.2687 20.4777C12.3299 20.5389 12.4129 20.5733 12.4995 20.5733C12.5861 20.5733 12.6691 20.5389 12.7303 20.4777C12.7915 20.4165 12.8259 20.3335 12.8259 20.2469V19.8585C12.8259 19.7719 12.7915 19.6889 12.7303 19.6277C12.6691 19.5664 12.5861 19.532 12.4995 19.532ZM12.4995 23.3284C12.4129 23.3284 12.3299 23.3627 12.2687 23.424C12.2075 23.4852 12.1731 23.5682 12.1731 23.6548V24.0432C12.1731 24.1298 12.2075 24.2128 12.2687 24.274C12.3299 24.3353 12.4129 24.3696 12.4995 24.3696C12.5861 24.3696 12.6691 24.3353 12.7303 24.274C12.7915 24.2128 12.8259 24.1298 12.8259 24.0432V23.6548C12.8259 23.5682 12.7915 23.4852 12.7303 23.424C12.6691 23.3627 12.5861 23.3284 12.4995 23.3284ZM17.0988 13.0362C17.0122 13.0362 16.9292 13.0706 16.868 13.1318C16.8068 13.193 16.7724 13.2761 16.7724 13.3626V13.8784C16.7724 13.965 16.8068 14.048 16.868 14.1092C16.9292 14.1704 17.0122 14.2048 17.0988 14.2048C17.1854 14.2048 17.2684 14.1704 17.3296 14.1092C17.3908 14.048 17.4252 13.965 17.4252 13.8784V13.3626C17.4252 13.2761 17.3908 13.193 17.3296 13.1318C17.2684 13.0706 17.1854 13.0362 17.0988 13.0362ZM17.0988 24.0693C17.0122 24.0693 16.9292 24.1037 16.868 24.1649C16.8068 24.2262 16.7724 24.3092 16.7724 24.3958V24.9115C16.7724 24.9981 16.8068 25.0811 16.868 25.1423C16.9292 25.2035 17.0122 25.2379 17.0988 25.2379C17.1854 25.2379 17.2684 25.2035 17.3296 25.1423C17.3908 25.0811 17.4252 24.9981 17.4252 24.9115V24.3958C17.4252 24.3092 17.3908 24.2262 17.3296 24.1649C17.2684 24.1037 17.1854 24.0693 17.0988 24.0693ZM17.0988 19.2611C17.0122 19.2611 16.9292 19.2955 16.868 19.3567C16.8068 19.4179 16.7724 19.501 16.7724 19.5875V20.4362C16.7724 20.5228 16.8068 20.6058 16.868 20.6671C16.9292 20.7283 17.0122 20.7627 17.0988 20.7627C17.1854 20.7627 17.2684 20.7283 17.3296 20.6671C17.3908 20.6058 17.4252 20.5228 17.4252 20.4362V19.5875C17.4252 19.501 17.3908 19.4179 17.3296 19.3567C17.2684 19.2955 17.1854 19.2611 17.0988 19.2611ZM17.0988 15.9218C17.0122 15.9218 16.9292 15.9562 16.868 16.0174C16.8068 16.0786 16.7724 16.1616 16.7724 16.2482V17.4886C16.7724 17.5752 16.8068 17.6582 16.868 17.7194C16.9292 17.7807 17.0122 17.8151 17.0988 17.8151C17.1854 17.8151 17.2684 17.7807 17.3296 17.7194C17.3908 17.6582 17.4252 17.5752 17.4252 17.4886V16.2482C17.4252 16.1616 17.3908 16.0786 17.3296 16.0174C17.2684 15.9562 17.1854 15.9218 17.0988 15.9218ZM19.4001 13.0362C19.3135 13.0362 19.2305 13.0706 19.1693 13.1318C19.1081 13.193 19.0737 13.2761 19.0737 13.3626V14.2342C19.0737 14.3208 19.1081 14.4038 19.1693 14.465C19.2305 14.5262 19.3135 14.5606 19.4001 14.5606C19.4867 14.5606 19.5697 14.5262 19.6309 14.465C19.6921 14.4038 19.7265 14.3208 19.7265 14.2342V13.3626C19.7265 13.2761 19.6921 13.193 19.6309 13.1318C19.5697 13.0706 19.4867 13.0362 19.4001 13.0362ZM19.4001 17.1034C19.3135 17.1034 19.2305 17.1378 19.1693 17.1991C19.1081 17.2603 19.0737 17.3433 19.0737 17.4299V17.8151C19.0737 17.9016 19.1081 17.9847 19.1693 18.0459C19.2305 18.1071 19.3135 18.1415 19.4001 18.1415C19.4867 18.1415 19.5697 18.1071 19.6309 18.0459C19.6921 17.9847 19.7265 17.9016 19.7265 17.8151V17.4299C19.7265 17.3433 19.6921 17.2603 19.6309 17.1991C19.5697 17.1378 19.4867 17.1034 19.4001 17.1034ZM19.4001 23.237C19.3135 23.237 19.2305 23.2713 19.1693 23.3326C19.1081 23.3938 19.0737 23.4768 19.0737 23.5634V23.9486C19.0737 24.0351 19.1081 24.1182 19.1693 24.1794C19.2305 24.2406 19.3135 24.275 19.4001 24.275C19.4867 24.275 19.5697 24.2406 19.6309 24.1794C19.6921 24.1182 19.7265 24.0351 19.7265 23.9486V23.5634C19.7265 23.4768 19.6921 23.3938 19.6309 23.3326C19.5697 23.2713 19.4867 23.237 19.4001 23.237ZM19.4001 19.7507C19.3135 19.7507 19.2305 19.7851 19.1693 19.8464C19.1081 19.9076 19.0737 19.9906 19.0737 20.0772V21.2392C19.0737 21.3258 19.1081 21.4088 19.1693 21.4701C19.2305 21.5313 19.3135 21.5657 19.4001 21.5657C19.4867 21.5657 19.5697 21.5313 19.6309 21.4701C19.6921 21.4088 19.7265 21.3258 19.7265 21.2392V20.0772C19.7265 19.9906 19.6921 19.9076 19.6309 19.8464C19.5697 19.7851 19.4867 19.7507 19.4001 19.7507ZM14.8008 20.8541C14.7142 20.8541 14.6312 20.8885 14.57 20.9497C14.5087 21.0109 14.4743 21.0939 14.4743 21.1805V22.0488C14.4743 22.1353 14.5087 22.2184 14.57 22.2796C14.6312 22.3408 14.7142 22.3752 14.8008 22.3752C14.8873 22.3752 14.9704 22.3408 15.0316 22.2796C15.0928 22.2184 15.1272 22.1353 15.1272 22.0488V21.1805C15.1272 21.0939 15.0928 21.0109 15.0316 20.9497C14.9704 20.8885 14.8873 20.8541 14.8008 20.8541ZM14.8008 16.8195C14.7142 16.8195 14.6312 16.8539 14.57 16.9151C14.5087 16.9763 14.4743 17.0593 14.4743 17.1459V17.5311C14.4743 17.6176 14.5087 17.7007 14.57 17.7619C14.6312 17.8231 14.7142 17.8575 14.8008 17.8575C14.8873 17.8575 14.9704 17.8231 15.0316 17.7619C15.0928 17.7007 15.1272 17.6176 15.1272 17.5311V17.1459C15.1272 17.0593 15.0928 16.9763 15.0316 16.9151C14.9704 16.8539 14.8873 16.8195 14.8008 16.8195ZM14.8008 13.0362C14.7142 13.0362 14.6312 13.0706 14.57 13.1318C14.5087 13.193 14.4743 13.2761 14.4743 13.3626V14.5247C14.4743 14.6113 14.5087 14.6943 14.57 14.7555C14.6312 14.8167 14.7142 14.8511 14.8008 14.8511C14.8873 14.8511 14.9704 14.8167 15.0316 14.7555C15.0928 14.6943 15.1272 14.6113 15.1272 14.5247V13.3626C15.1272 13.2761 15.0928 13.193 15.0316 13.1318C14.9704 13.0706 14.8873 13.0362 14.8008 13.0362Z" fill="black"/>
</g>
</g>
</g>
<defs>
<clipPath id="clip0_1_2355">
<rect width="40" height="40" fill="white" transform="translate(0.5 0.625488)"/>
</clipPath>
<clipPath id="clip1_1_2355">
<rect width="40" height="40" fill="white" transform="translate(0.5 0.625488)"/>
</clipPath>
<clipPath id="clip2_1_2355">
<rect width="40" height="40" fill="white" transform="translate(0.5 0.625488)"/>
</clipPath>
</defs>
</svg>
