<svg width="41" height="41" viewBox="0 0 41 41" fill="none" xmlns="http://www.w3.org/2000/svg">
<g clip-path="url(#clip0_1_2367)">
<g clip-path="url(#clip1_1_2367)">
<g clip-path="url(#clip2_1_2367)">
<path d="M24.6519 31.75H16.7027C16.614 31.75 16.5289 31.7852 16.4662 31.848C16.4034 31.9107 16.3682 31.9958 16.3682 32.0846C16.3682 32.1733 16.4034 32.2584 16.4662 32.3211C16.5289 32.3839 16.614 32.4191 16.7027 32.4191H24.6519C24.7406 32.4191 24.8257 32.3839 24.8884 32.3211C24.9512 32.2584 24.9864 32.1733 24.9864 32.0846C24.9864 31.9958 24.9512 31.9107 24.8884 31.848C24.8257 31.7852 24.7406 31.75 24.6519 31.75ZM23.869 33.5466H17.4889C17.4002 33.5466 17.3151 33.5818 17.2524 33.6446C17.1896 33.7073 17.1544 33.7924 17.1544 33.8811C17.1544 33.9699 17.1896 34.055 17.2524 34.1177C17.3151 34.1805 17.4002 34.2157 17.4889 34.2157H23.869C23.9577 34.2157 24.0428 34.1805 24.1056 34.1177C24.1683 34.055 24.2036 33.9699 24.2036 33.8811C24.2036 33.7924 24.1683 33.7073 24.1056 33.6446C24.0428 33.5818 23.9577 33.5466 23.869 33.5466ZM19.4963 37.8356H16.7897C16.701 37.8356 16.6159 37.8709 16.5531 37.9336C16.4904 37.9964 16.4551 38.0815 16.4551 38.1702C16.4551 38.2589 16.4904 38.344 16.5531 38.4068C16.6159 38.4695 16.701 38.5048 16.7897 38.5048H19.4963C19.585 38.5048 19.6701 38.4695 19.7329 38.4068C19.7956 38.344 19.8309 38.2589 19.8309 38.1702C19.8309 38.0815 19.7956 37.9964 19.7329 37.9336C19.6701 37.8709 19.585 37.8356 19.4963 37.8356Z" fill="black"/>
<path d="M40.3428 14.8411L20.8546 2.79696C20.8015 2.76372 20.74 2.74609 20.6773 2.74609C20.6146 2.74609 20.5532 2.76372 20.5 2.79696L1.01188 14.8411C0.963657 14.8713 0.923913 14.9132 0.8964 14.9629C0.868887 15.0127 0.854512 15.0686 0.854634 15.1255V19.3476C0.854634 19.4364 0.889882 19.5215 0.952624 19.5842C1.01537 19.647 1.10046 19.6822 1.18919 19.6822H3.03931V37.8354H0.83456C0.745829 37.8354 0.660733 37.8707 0.59799 37.9334C0.535248 37.9962 0.5 38.0813 0.5 38.17C0.5 38.2587 0.535248 38.3438 0.59799 38.4066C0.660733 38.4693 0.745829 38.5046 0.83456 38.5046H8.42238C8.51111 38.5046 8.59621 38.4693 8.65895 38.4066C8.72169 38.3438 8.75694 38.2587 8.75694 38.17C8.75694 38.0813 8.72169 37.9962 8.65895 37.9334C8.59621 37.8707 8.51111 37.8354 8.42238 37.8354H6.98043V22.1446H34.3742V37.8354H30.2324C30.2932 37.6914 30.325 37.5368 30.326 37.3804V32.6698C30.3289 31.9297 30.2161 31.1937 29.9915 30.4885L29.8811 30.1539C30.6505 29.9415 31.102 29.1456 30.8896 28.3761C30.8025 28.0607 30.611 27.7842 30.3464 27.5918C30.0817 27.3994 29.7596 27.3025 29.4328 27.3169H28.4491C28.2785 26.8652 27.4455 24.7776 26.2611 23.727C26.2001 23.6732 26.1216 23.6435 26.0403 23.6434H15.3143C15.233 23.6435 15.1545 23.6732 15.0935 23.727C13.8991 24.7776 13.0862 26.8652 12.9055 27.3169H11.9219C11.1237 27.3167 10.4765 27.9637 10.4763 28.7619C10.4763 29.0693 10.5742 29.3687 10.756 29.6167C10.9377 29.8646 11.1938 30.0481 11.487 30.1406L11.3732 30.4751C11.1486 31.1803 11.0357 31.9163 11.0386 32.6564V37.3403C11.0237 37.942 11.4976 38.4428 12.0992 38.4611H14.6619C15.2636 38.4428 15.7375 37.942 15.7225 37.3403V36.718H25.6422V37.3403C25.6272 37.942 26.1011 38.4428 26.7027 38.4611H39.9614C40.0501 38.4611 40.1352 38.4258 40.1979 38.3631C40.2607 38.3003 40.2959 38.2152 40.2959 38.1265C40.2959 38.0378 40.2607 37.9527 40.1979 37.8899C40.1352 37.8272 40.0501 37.7919 39.9614 37.7919H38.3153V19.6822H40.1654C40.2542 19.6822 40.3393 19.647 40.402 19.5842C40.4648 19.5215 40.5 19.4364 40.5 19.3476V15.1255C40.5001 15.0686 40.4857 15.0127 40.4582 14.9629C40.4307 14.9132 40.391 14.8713 40.3428 14.8411ZM15.4448 24.3259V24.3058H25.9098C26.7897 25.1422 27.4655 26.6477 27.7298 27.3169H13.6248C13.8891 26.6779 14.5649 25.1623 15.4448 24.3259ZM15.0333 37.3804C15.0398 37.4919 15.0025 37.6015 14.9294 37.6858C14.8563 37.7702 14.7531 37.8227 14.6419 37.8321H12.0892C11.9779 37.8227 11.8747 37.7702 11.8016 37.6858C11.7285 37.6015 11.6912 37.4919 11.6977 37.3804V36.7582H15.0433L15.0333 37.3804ZM29.6469 37.3804C29.6534 37.4919 29.6161 37.6015 29.543 37.6858C29.4699 37.7702 29.3667 37.8227 29.2554 37.8321H26.7027C26.5915 37.8227 26.4883 37.7702 26.4152 37.6858C26.3421 37.6015 26.3048 37.4919 26.3113 37.3804H26.3013V36.7582H29.6469V37.3804ZM29.6569 36.1024H11.6977V34.3426H14.5883C15.2084 34.3408 15.7106 33.8386 15.7124 33.2185V32.4022C15.7106 31.7827 15.2078 31.2814 14.5883 31.2814H11.855C11.898 31.0875 11.9494 30.8955 12.0089 30.706L12.2297 30.0368L12.8419 28.9562C12.8639 28.918 12.8781 28.8758 12.8838 28.8321C12.8894 28.7884 12.8864 28.744 12.875 28.7014C12.8635 28.6588 12.8437 28.619 12.8168 28.584C12.7899 28.5491 12.7564 28.5198 12.7181 28.4979C12.6799 28.4759 12.6377 28.4617 12.594 28.456C12.5503 28.4503 12.5059 28.4533 12.4633 28.4648C12.4208 28.4763 12.3809 28.4961 12.346 28.523C12.311 28.5499 12.2818 28.5834 12.2598 28.6217L11.7412 29.5417C11.5678 29.5034 11.4127 29.4068 11.3019 29.268C11.1911 29.1292 11.1312 28.9565 11.1323 28.7789C11.1305 28.6746 11.1497 28.5709 11.1887 28.4741C11.2277 28.3773 11.2857 28.2894 11.3594 28.2154C11.433 28.1415 11.5207 28.0831 11.6173 28.0436C11.714 28.0042 11.8175 27.9846 11.9219 27.986H29.4328C29.6249 27.9839 29.8111 28.0529 29.9555 28.1797C30.0999 28.3065 30.1924 28.4821 30.2152 28.6729C30.238 28.8637 30.1896 29.0563 30.0791 29.2135C29.9686 29.3708 29.804 29.4817 29.6168 29.525L29.0948 28.6016C29.0505 28.5244 28.9773 28.468 28.8913 28.4448C28.8054 28.4215 28.7137 28.4334 28.6365 28.4778C28.5593 28.5222 28.5029 28.5954 28.4797 28.6813C28.4565 28.7673 28.4683 28.8589 28.5127 28.9361L29.125 30.0168L29.3458 30.6859C29.4053 30.8754 29.4566 31.0674 29.4997 31.2613H26.7663C26.1468 31.2613 25.644 31.7626 25.6422 32.3821V33.1851C25.6255 33.8075 26.1167 34.3256 26.7391 34.3422C26.7482 34.3425 26.7573 34.3425 26.7663 34.3426H29.6569V36.1024ZM11.7446 31.9505H14.5783C14.6376 31.9501 14.6964 31.9613 14.7514 31.9836C14.8064 32.0059 14.8564 32.0388 14.8986 32.0804C14.9409 32.1221 14.9745 32.1716 14.9976 32.2262C15.0207 32.2809 15.0329 32.3395 15.0333 32.3988V33.2051C15.0369 33.3257 14.9924 33.4428 14.9096 33.5307C14.8269 33.6185 14.7126 33.6698 14.592 33.6734L14.5883 33.6735H11.6977V32.6698C11.7002 32.4294 11.7159 32.1893 11.7446 31.9505ZM29.6569 33.6735H26.7663C26.6456 33.6735 26.5299 33.6256 26.4446 33.5402C26.3592 33.4549 26.3113 33.3392 26.3113 33.2185V32.4022C26.3113 32.2824 26.3589 32.1675 26.4436 32.0828C26.5283 31.9981 26.6432 31.9505 26.763 31.9505H29.6101C29.6388 32.1893 29.6544 32.4294 29.6569 32.6698V33.6735ZM5.42138 17.0057V15.5437H35.9333V17.0057H5.42138ZM34.3742 21.4755H6.98043V19.9264H34.3742V21.4755ZM34.3742 19.2573H6.98043V17.6748H34.3742V19.2573ZM39.8309 19.0131H37.9808C37.892 19.0131 37.8069 19.0483 37.7442 19.1111C37.6814 19.1738 37.6462 19.2589 37.6462 19.3476V37.8354H35.0433V17.6748H36.2678C36.3565 17.6748 36.4416 17.6396 36.5044 17.5769C36.5671 17.5141 36.6024 17.429 36.6024 17.3403V15.2091C36.6024 15.1204 36.5671 15.0353 36.5044 14.9726C36.4416 14.9098 36.3565 14.8746 36.2678 14.8746H5.08682C4.99809 14.8746 4.91299 14.9098 4.85025 14.9726C4.78751 15.0353 4.75226 15.1204 4.75226 15.2091V17.3403C4.75226 17.429 4.78751 17.5141 4.85025 17.5769C4.91299 17.6396 4.99809 17.6748 5.08682 17.6748H6.31131V37.8354H3.70843V19.3476C3.70843 19.2589 3.67318 19.1738 3.61044 19.1111C3.5477 19.0483 3.4626 19.0131 3.37387 19.0131H1.52375V15.3095L20.6773 3.47277L39.8309 15.3095V19.0131Z" fill="black"/>
</g>
</g>
</g>
<defs>
<clipPath id="clip0_1_2367">
<rect width="40" height="40" fill="white" transform="translate(0.5 0.625488)"/>
</clipPath>
<clipPath id="clip1_1_2367">
<rect width="40" height="40" fill="white" transform="translate(0.5 0.625488)"/>
</clipPath>
<clipPath id="clip2_1_2367">
<rect width="40" height="40" fill="white" transform="translate(0.5 0.625488)"/>
</clipPath>
</defs>
</svg>
