<svg width="41" height="41" viewBox="0 0 41 41" fill="none" xmlns="http://www.w3.org/2000/svg">
<g clip-path="url(#clip0_1_2389)">
<g clip-path="url(#clip1_1_2389)">
<g clip-path="url(#clip2_1_2389)">
<path d="M40.1762 26.1701H34.7529V21.0511C34.7529 20.9653 34.7188 20.8829 34.658 20.8222C34.5973 20.7615 34.515 20.7274 34.4291 20.7274H21.3515L27.1796 18.2796C28.0523 17.9145 28.4638 16.9112 28.0988 16.0384C28.0122 15.8315 27.8858 15.6435 27.7268 15.4853L25.496 13.2512L26.4252 12.322L26.9465 12.8433C26.9767 12.8733 27.0126 12.897 27.0521 12.9131C27.0915 12.9292 27.1338 12.9374 27.1764 12.9372C27.219 12.9374 27.2612 12.9292 27.3007 12.9131C27.3401 12.897 27.376 12.8733 27.4063 12.8433L33.4383 6.81122C34.1632 6.08352 34.1632 4.90657 33.4383 4.17887L33.3412 4.08174C32.6135 3.35687 31.4365 3.35687 30.7088 4.08174L24.6768 10.1008C24.6165 10.1615 24.5826 10.2436 24.5826 10.3291C24.5826 10.4146 24.6165 10.4967 24.6768 10.5574L25.1851 11.0657L24.2559 11.9982L22.0218 9.76411C21.3508 9.09469 20.2643 9.09598 19.5949 9.76686C19.4382 9.92396 19.3135 10.11 19.2275 10.3145L14.8597 20.7274H5.20131C5.11544 20.7274 5.03308 20.7615 4.97236 20.8222C4.91164 20.8829 4.87753 20.9653 4.87753 21.0511C4.87753 21.137 4.91164 21.2194 4.97236 21.2801C5.03308 21.3408 5.11544 21.3749 5.20131 21.3749H11.7061V26.1701H1.14756V21.3749H3.02226C3.10813 21.3749 3.19049 21.3408 3.25121 21.2801C3.31193 21.2194 3.34604 21.137 3.34604 21.0511C3.34604 20.9653 3.31193 20.8829 3.25121 20.8222C3.19049 20.7615 3.10813 20.7274 3.02226 20.7274H0.823782C0.737909 20.7274 0.655554 20.7615 0.594833 20.8222C0.534113 20.8829 0.5 20.9653 0.5 21.0511L0.5 26.4939C0.5 26.5798 0.534113 26.6621 0.594833 26.7229C0.655554 26.7836 0.737909 26.8177 0.823782 26.8177H6.26008V31.6226H0.823782C0.737909 31.6226 0.655554 31.6567 0.594833 31.7174C0.534113 31.7782 0.5 31.8605 0.5 31.9464L0.5 37.3892C0.502526 37.4733 0.537751 37.5532 0.5982 37.6119C0.65865 37.6705 0.739566 37.7033 0.823782 37.7032H29.1547C29.2406 37.7032 29.3229 37.6691 29.3836 37.6084C29.4444 37.5477 29.4785 37.4653 29.4785 37.3795C29.4785 37.2936 29.4444 37.2112 29.3836 37.1505C29.3229 37.0898 29.2406 37.0557 29.1547 37.0557H23.5597V32.2702H34.1053V37.0654H31.3888C31.3029 37.0654 31.2206 37.0995 31.1598 37.1602C31.0991 37.2209 31.065 37.3033 31.065 37.3892C31.065 37.475 31.0991 37.5574 31.1598 37.6181C31.2206 37.6788 31.3029 37.7129 31.3888 37.7129H34.4291C34.515 37.7129 34.5973 37.6788 34.658 37.6181C34.7188 37.5574 34.7529 37.475 34.7529 37.3892V32.2702H40.1762C40.2621 32.2702 40.3444 32.2361 40.4052 32.1753C40.4659 32.1146 40.5 32.0323 40.5 31.9464V26.4939C40.5 26.408 40.4659 26.3257 40.4052 26.265C40.3444 26.2042 40.2621 26.1701 40.1762 26.1701ZM23.5597 21.3749H34.1053V26.1701H23.5597V21.3749ZM31.1654 4.52532C31.6412 4.05324 32.4088 4.05324 32.8847 4.52532L32.9785 4.62245C33.4506 5.09833 33.4506 5.86585 32.9785 6.34173L27.1764 12.1439L25.8813 10.8488L25.3632 10.3307L31.1654 4.52532ZM25.687 11.5255L25.9816 11.8719L24.8225 13.0278L22.7729 15.0871C22.7291 15.1283 22.6712 15.1512 22.6111 15.1512C22.5509 15.1512 22.493 15.1283 22.4492 15.0871C22.4087 15.0429 22.3862 14.9851 22.3862 14.9252C22.3862 14.8652 22.4087 14.8075 22.4492 14.7633L25.687 11.5255ZM14.8209 22.5114L19.8298 10.5768C20.0584 10.0328 20.6849 9.77722 21.2288 10.006C21.3571 10.0599 21.4735 10.1383 21.5717 10.2368L23.8026 12.4677L21.9667 14.3035C21.6198 14.6505 21.6198 15.2129 21.9667 15.5598C22.3137 15.9067 22.8761 15.9067 23.223 15.5598L25.0394 13.711L27.2703 15.9419C27.6866 16.3601 27.685 17.0366 27.2667 17.453C27.1692 17.55 27.0539 17.6273 26.9271 17.6806L19.6161 20.7533L15.0022 22.6927C14.9769 22.7039 14.9487 22.7071 14.9215 22.7019C14.8943 22.6967 14.8694 22.6833 14.85 22.6636C14.8294 22.6447 14.8154 22.6197 14.8102 22.5923C14.8049 22.5649 14.8087 22.5365 14.8209 22.5114ZM12.3537 21.3749H14.5877L14.2154 22.2621C14.1554 22.4059 14.1397 22.5644 14.1703 22.7173C14.2008 22.8701 14.2763 23.0104 14.387 23.1201C14.4956 23.2326 14.6361 23.309 14.7895 23.3391C14.943 23.3692 15.102 23.3516 15.245 23.2885L19.8071 21.3749H22.9122V26.1701H12.3537V21.3749ZM6.90764 26.8177H17.4532V31.6226H6.90764V26.8177ZM11.7061 37.0654H1.14756V32.2702H11.7061V37.0654ZM22.9122 37.0654H12.3537V32.2702H22.9122V37.0654ZM28.6593 31.6226H18.1008V26.8177L23.236 26.8274H28.6593V31.6226ZM39.8654 31.6226H29.3069V26.8177H39.8654V31.6226Z" fill="black"/>
<path d="M31.5801 6.53588C31.5215 6.48563 31.4468 6.45801 31.3695 6.45801C31.2923 6.45801 31.2176 6.48563 31.1589 6.53588L29.7958 7.899C29.7355 7.95966 29.7016 8.04172 29.7016 8.12726C29.7016 8.2128 29.7355 8.29486 29.7958 8.35553C29.826 8.38554 29.8619 8.40928 29.9014 8.42539C29.9408 8.4415 29.9831 8.44967 30.0257 8.44943C30.1106 8.44908 30.192 8.41535 30.2523 8.35553L31.6154 6.99241C31.6713 6.92719 31.699 6.84245 31.6923 6.75683C31.6857 6.67122 31.6454 6.59174 31.5801 6.53588ZM28.9313 9.54381C28.9302 9.54381 28.9293 9.54348 28.9282 9.54348C28.9271 9.54348 28.9259 9.54381 28.9248 9.54381H28.9313Z" fill="black"/>
<path d="M29.3133 8.77272C29.2575 8.73026 29.1895 8.70705 29.1194 8.70655C29.0493 8.70605 28.981 8.72831 28.9246 8.76996L28.7045 8.99013C28.6591 9.035 28.6281 9.09227 28.6152 9.15473C28.6023 9.2172 28.6082 9.28208 28.6321 9.34122C28.656 9.40035 28.6968 9.45111 28.7495 9.48709C28.8021 9.52308 28.8643 9.5427 28.928 9.54348C29.0129 9.5432 29.0942 9.50959 29.1545 9.44991L29.3747 9.2265C29.4005 9.19267 29.4193 9.15409 29.4302 9.11298C29.441 9.07187 29.4437 9.02902 29.438 8.98688C29.4323 8.94474 29.4183 8.90414 29.3969 8.86739C29.3755 8.83065 29.3471 8.79848 29.3133 8.77272ZM21.1992 35.7474H17.5437C17.4578 35.7474 17.3755 35.7815 17.3148 35.8422C17.254 35.9029 17.2199 35.9853 17.2199 36.0712C17.2199 36.157 17.254 36.2394 17.3148 36.3001C17.3755 36.3608 17.4578 36.3949 17.5437 36.3949H21.1992C21.2851 36.3949 21.3674 36.3608 21.4282 36.3001C21.4889 36.2394 21.523 36.157 21.523 36.0712C21.523 35.9853 21.4889 35.9029 21.4282 35.8422C21.3674 35.7815 21.2851 35.7474 21.1992 35.7474ZM7.82378 27.9701C7.73791 27.9701 7.65555 28.0043 7.59483 28.065C7.53411 28.1257 7.5 28.208 7.5 28.2939V30.5604C7.5 30.6463 7.53411 30.7286 7.59483 30.7893C7.65555 30.8501 7.73791 30.8842 7.82378 30.8842C7.90965 30.8842 7.99201 30.8501 8.05273 30.7893C8.11345 30.7286 8.14756 30.6463 8.14756 30.5604V28.2939C8.14756 28.208 8.11345 28.1257 8.05273 28.065C7.99201 28.0043 7.90965 27.9701 7.82378 27.9701ZM30.7054 22.3072H28.5426C28.4567 22.3072 28.3743 22.3413 28.3136 22.402C28.2529 22.4628 28.2188 22.5451 28.2188 22.631C28.2188 22.7169 28.2529 22.7992 28.3136 22.8599C28.3743 22.9206 28.4567 22.9548 28.5426 22.9548H30.7054C30.7913 22.9548 30.8737 22.9206 30.9344 22.8599C30.9951 22.7992 31.0292 22.7169 31.0292 22.631C31.0292 22.5451 30.9951 22.4628 30.9344 22.402C30.8737 22.3413 30.7913 22.3072 30.7054 22.3072ZM32.6449 22.3072H32.0847C31.9989 22.3072 31.9165 22.3413 31.8558 22.402C31.7951 22.4628 31.761 22.5451 31.761 22.631C31.761 22.7169 31.7951 22.7992 31.8558 22.8599C31.9165 22.9206 31.9989 22.9548 32.0847 22.9548H32.6449C32.7308 22.9548 32.8131 22.9206 32.8738 22.8599C32.9346 22.7992 32.9687 22.7169 32.9687 22.631C32.9687 22.5451 32.9346 22.4628 32.8738 22.402C32.8131 22.3413 32.7308 22.3072 32.6449 22.3072Z" fill="black"/>
</g>
</g>
</g>
<defs>
<clipPath id="clip0_1_2389">
<rect width="40" height="40" fill="white" transform="translate(0.5 0.625488)"/>
</clipPath>
<clipPath id="clip1_1_2389">
<rect width="40" height="40" fill="white" transform="translate(0.5 0.625488)"/>
</clipPath>
<clipPath id="clip2_1_2389">
<rect width="40" height="40" fill="white" transform="translate(0.5 0.625488)"/>
</clipPath>
</defs>
</svg>
