<svg width="41" height="41" viewBox="0 0 41 41" fill="none" xmlns="http://www.w3.org/2000/svg">
<g clip-path="url(#clip0_1_2330)">
<g clip-path="url(#clip1_1_2330)">
<g clip-path="url(#clip2_1_2330)">
<path d="M17.4648 9.26266L12.6214 5.48693V1.17413C12.6214 1.0878 12.5871 1.00501 12.5261 0.943968C12.465 0.882926 12.3822 0.848633 12.2959 0.848633C12.2096 0.848633 12.1268 0.882926 12.0658 0.943968C12.0047 1.00501 11.9704 1.0878 11.9704 1.17413V5.65293C11.9705 5.70264 11.982 5.75166 12.0041 5.79623C12.0261 5.84081 12.058 5.87975 12.0974 5.91007L16.3841 9.24964H13.7574C13.6711 9.24964 13.5883 9.28394 13.5272 9.34498C13.4662 9.40602 13.4319 9.48881 13.4319 9.57514C13.4319 9.66146 13.4662 9.74425 13.5272 9.8053C13.5883 9.86634 13.6711 9.90063 13.7574 9.90063H16.9375V11.1668H1.15099V9.90063H12.1169C12.2032 9.90063 12.286 9.86634 12.3471 9.8053C12.4081 9.74425 12.4424 9.66146 12.4424 9.57514C12.4424 9.48881 12.4081 9.40602 12.3471 9.34498C12.286 9.28394 12.2032 9.24964 12.1169 9.24964H1.70108L5.9911 5.91007C6.03048 5.87975 6.06241 5.84081 6.08441 5.79623C6.10641 5.75166 6.11792 5.70264 6.11804 5.65293V1.17413C6.11804 1.0878 6.08374 1.00501 6.0227 0.943968C5.96166 0.882926 5.87887 0.848633 5.79254 0.848633C5.70622 0.848633 5.62343 0.882926 5.56238 0.943968C5.50134 1.00501 5.46705 1.0878 5.46705 1.17413V5.48693L0.623693 9.26266C0.584896 9.29331 0.553593 9.3324 0.532162 9.37695C0.51073 9.42151 0.499733 9.47036 0.500005 9.5198V11.4923C0.500005 11.5786 0.534298 11.6614 0.59534 11.7225C0.656382 11.7835 0.739173 11.8178 0.825499 11.8178H17.263C17.3493 11.8178 17.4321 11.7835 17.4931 11.7225C17.5542 11.6614 17.5885 11.5786 17.5885 11.4923V9.5198C17.5887 9.47036 17.5777 9.42151 17.5563 9.37695C17.5349 9.3324 17.5036 9.29331 17.4648 9.26266Z" fill="black"/>
<path d="M2.24449 10.2485H2.20543C2.12001 10.2499 2.03854 10.2848 1.97861 10.3457C1.91868 10.4065 1.88509 10.4886 1.88509 10.574C1.88509 10.6594 1.91868 10.7414 1.97861 10.8023C2.03854 10.8632 2.12001 10.8981 2.20543 10.8994H2.24449C2.32992 10.8981 2.41139 10.8632 2.47132 10.8023C2.53125 10.7414 2.56484 10.6594 2.56484 10.574C2.56484 10.4886 2.53125 10.4065 2.47132 10.3457C2.41139 10.2848 2.32992 10.2499 2.24449 10.2485ZM3.54322 10.2485H3.50416C3.41873 10.2499 3.33726 10.2848 3.27733 10.3457C3.2174 10.4065 3.18381 10.4886 3.18381 10.574C3.18381 10.6594 3.2174 10.7414 3.27733 10.8023C3.33726 10.8632 3.41873 10.8981 3.50416 10.8994H3.54322C3.62864 10.8981 3.71011 10.8632 3.77004 10.8023C3.82997 10.7414 3.86356 10.6594 3.86356 10.574C3.86356 10.4886 3.82997 10.4065 3.77004 10.3457C3.71011 10.2848 3.62864 10.2499 3.54322 10.2485ZM17.1749 17.302H0.900201C0.813875 17.302 0.731084 17.3363 0.670042 17.3973C0.609 17.4584 0.574707 17.5412 0.574707 17.6275V38.9832C0.574707 39.0695 0.609 39.1523 0.670042 39.2133C0.731084 39.2744 0.813875 39.3087 0.900201 39.3087H17.1749C17.2612 39.3087 17.344 39.2744 17.4051 39.2133C17.4661 39.1523 17.5004 39.0695 17.5004 38.9832V17.6275C17.5004 17.5412 17.4661 17.4584 17.4051 17.3973C17.344 17.3363 17.2612 17.302 17.1749 17.302ZM1.2257 17.953H16.8494V21.8166H1.2257V17.953ZM16.8494 38.6577H1.2257V35.1619H16.8494V38.6577ZM16.8494 34.5109H1.2257V33.1666H6.05278V33.4921C6.05278 33.5784 6.08707 33.6612 6.14811 33.7222C6.20915 33.7833 6.29194 33.8176 6.37827 33.8176H11.7099C11.7962 33.8176 11.879 33.7833 11.94 33.7222C12.0011 33.6612 12.0354 33.5784 12.0354 33.4921V33.1666H16.8494V34.5109ZM16.8494 32.5156H11.7099C11.6235 32.5156 11.5408 32.5499 11.4797 32.6109C11.4187 32.672 11.3844 32.7548 11.3844 32.8411V33.1666H6.70377V32.8411C6.70377 32.7548 6.66947 32.672 6.60843 32.6109C6.54739 32.5499 6.4646 32.5156 6.37827 32.5156H1.23872V22.4676H16.8624L16.8494 32.5156Z" fill="black"/>
<path d="M14.7731 23.568H3.31567C3.22935 23.568 3.14656 23.6023 3.08551 23.6633C3.02447 23.7243 2.99018 23.8071 2.99018 23.8935C2.99018 23.9798 3.02447 24.0626 3.08551 24.1236C3.14656 24.1847 3.22935 24.219 3.31567 24.219H14.7731C14.8594 24.219 14.9422 24.1847 15.0032 24.1236C15.0643 24.0626 15.0986 23.9798 15.0986 23.8935C15.0986 23.8071 15.0643 23.7243 15.0032 23.6633C14.9422 23.6023 14.8594 23.568 14.7731 23.568ZM3.71603 18.9232C3.20907 18.9232 2.79814 19.3341 2.79814 19.8411C2.79635 20.3462 3.20435 20.7572 3.70952 20.759H3.71603C4.22299 20.759 4.63393 20.348 4.63393 19.8411C4.63393 19.3341 4.22299 18.9232 3.71603 18.9232ZM3.71603 20.108C3.64524 20.108 3.57736 20.0798 3.5273 20.0298C3.47725 19.9797 3.44913 19.9119 3.44913 19.8411C3.44913 19.7703 3.47725 19.7024 3.5273 19.6523C3.57736 19.6023 3.64524 19.5742 3.71603 19.5742C3.78682 19.5742 3.85471 19.6023 3.90476 19.6523C3.95482 19.7024 3.98294 19.7703 3.98294 19.8411C3.98294 19.9119 3.95482 19.9797 3.90476 20.0298C3.85471 20.0798 3.78682 20.108 3.71603 20.108ZM7.26718 18.9232C6.76022 18.9232 6.34928 19.3341 6.34928 19.8411C6.34928 20.348 6.76022 20.759 7.26718 20.759C7.77413 20.759 8.18507 20.348 8.18507 19.8411C8.18507 19.3341 7.77413 18.9232 7.26718 18.9232ZM7.26718 20.108C7.19639 20.108 7.1285 20.0798 7.07844 20.0298C7.02839 19.9797 7.00027 19.9119 7.00027 19.8411C7.00027 19.7703 7.02839 19.7024 7.07844 19.6523C7.1285 19.6023 7.19639 19.5742 7.26718 19.5742C7.33796 19.5742 7.40585 19.6023 7.45591 19.6523C7.50596 19.7024 7.53408 19.7703 7.53408 19.8411C7.53408 19.9119 7.50596 19.9797 7.45591 20.0298C7.40585 20.0798 7.33796 20.108 7.26718 20.108ZM10.8216 18.9232C10.3146 18.9232 9.90368 19.3341 9.90368 19.8411C9.90368 20.348 10.3146 20.759 10.8216 20.759C11.3285 20.759 11.7395 20.348 11.7395 19.8411C11.7395 19.3341 11.3285 18.9232 10.8216 18.9232ZM10.8216 20.108C10.7508 20.108 10.6829 20.0798 10.6328 20.0298C10.5828 19.9797 10.5547 19.9119 10.5547 19.8411C10.5547 19.7703 10.5828 19.7024 10.6328 19.6523C10.6829 19.6023 10.7508 19.5742 10.8216 19.5742C10.8924 19.5742 10.9602 19.6023 11.0103 19.6523C11.0604 19.7024 11.0885 19.7703 11.0885 19.8411C11.0885 19.9119 11.0604 19.9797 11.0103 20.0298C10.9602 20.0798 10.8924 20.108 10.8216 20.108ZM14.376 18.9232C13.869 18.9232 13.4581 19.3341 13.4581 19.8411C13.4563 20.3462 13.8643 20.7572 14.3695 20.759H14.376C14.8829 20.759 15.2939 20.348 15.2939 19.8411C15.2939 19.3341 14.8829 18.9232 14.376 18.9232ZM14.376 20.108C14.3052 20.108 14.2373 20.0798 14.1872 20.0298C14.1372 19.9797 14.1091 19.9119 14.1091 19.8411C14.1091 19.7703 14.1372 19.7024 14.1872 19.6523C14.2373 19.6023 14.3052 19.5742 14.376 19.5742C14.4468 19.5742 14.5146 19.6023 14.5647 19.6523C14.6148 19.7024 14.6429 19.7703 14.6429 19.8411C14.6429 19.9119 14.6148 19.9797 14.5647 20.0298C14.5146 20.0798 14.4468 20.108 14.376 20.108ZM15.4468 39.7516H14.415C14.3287 39.7516 14.2459 39.7858 14.1849 39.8469C14.1238 39.9079 14.0895 39.9907 14.0895 40.077C14.0895 40.1634 14.1238 40.2462 14.1849 40.3072C14.2459 40.3683 14.3287 40.4025 14.415 40.4025H15.4468C15.5332 40.4025 15.616 40.3683 15.677 40.3072C15.738 40.2462 15.7723 40.1634 15.7723 40.077C15.7723 39.9907 15.738 39.9079 15.677 39.8469C15.616 39.7858 15.5332 39.7516 15.4468 39.7516ZM3.67372 39.7516H2.6419C2.55557 39.7516 2.47278 39.7858 2.41174 39.8469C2.3507 39.9079 2.31641 39.9907 2.31641 40.077C2.31641 40.1634 2.3507 40.2462 2.41174 40.3072C2.47278 40.3683 2.55557 40.4025 2.6419 40.4025H3.67372C3.76004 40.4025 3.84283 40.3683 3.90388 40.3072C3.96492 40.2462 3.99921 40.1634 3.99921 40.077C3.99921 39.9907 3.96492 39.9079 3.90388 39.8469C3.84283 39.7858 3.76004 39.7516 3.67372 39.7516ZM40.1747 5.57465H28.6554C28.6337 5.57277 28.612 5.57277 28.5903 5.57465C28.5686 5.5731 28.5469 5.5731 28.5252 5.57465H19.2128C19.1265 5.57465 19.0437 5.60894 18.9827 5.66998C18.9216 5.73102 18.8873 5.81381 18.8873 5.90014V40.0575C18.8873 40.1438 18.9216 40.2266 18.9827 40.2877C19.0437 40.3487 19.1265 40.383 19.2128 40.383H40.1747C40.261 40.383 40.3438 40.3487 40.4048 40.2877C40.4659 40.2266 40.5001 40.1438 40.5001 40.0575V5.90014C40.5001 5.81381 40.4659 5.73102 40.4048 5.66998C40.3438 5.60894 40.261 5.57465 40.1747 5.57465ZM19.5383 6.22563H28.2648V38.391H19.5383V6.22563ZM39.8492 39.732H19.5383V39.042H39.8492V39.732ZM39.8492 38.391H28.9158V6.22563H39.8492V38.391Z" fill="black"/>
<path d="M26.7283 18.1418H20.928C20.8417 18.1418 20.7589 18.176 20.6979 18.2371C20.6368 18.2981 20.6025 18.3809 20.6025 18.4672V24.222C20.6025 24.3083 20.6368 24.3911 20.6979 24.4522C20.7589 24.5132 20.8417 24.5475 20.928 24.5475H26.7283C26.8147 24.5475 26.8975 24.5132 26.9585 24.4522C27.0195 24.3911 27.0538 24.3083 27.0538 24.222V18.4672C27.0538 18.3809 27.0195 18.2981 26.9585 18.2371C26.8975 18.176 26.8147 18.1418 26.7283 18.1418ZM26.4028 23.8965H21.2535V20.5179H21.7483V21.7808C21.7483 21.8671 21.7826 21.9499 21.8436 22.0109C21.9047 22.072 21.9874 22.1063 22.0738 22.1063H23.2325C23.3189 22.1063 23.4016 22.072 23.4627 22.0109C23.5237 21.9499 23.558 21.8671 23.558 21.7808V20.5179H24.0886V21.7808C24.0886 21.8671 24.1229 21.9499 24.1839 22.0109C24.245 22.072 24.3278 22.1063 24.4141 22.1063H25.5728C25.6592 22.1063 25.742 22.072 25.803 22.0109C25.864 21.9499 25.8983 21.8671 25.8983 21.7808V20.5179H26.4028V23.8965ZM22.3993 21.4553V20.5179H22.907V21.4553H22.3993ZM24.7396 21.4553V20.5179H25.2473V21.4553H24.7396ZM26.4028 19.8669H21.2535V18.7927H26.4028V19.8669ZM31.0704 10.2388L30.094 9.58776C30.0219 9.53985 29.9337 9.52254 29.8489 9.53963C29.764 9.55672 29.6894 9.60682 29.6415 9.6789C29.5936 9.75099 29.5763 9.83915 29.5934 9.924C29.6105 10.0088 29.6606 10.0834 29.7327 10.1313L30.5627 10.6944V35.1391C30.5627 35.2254 30.597 35.3082 30.658 35.3692C30.719 35.4303 30.8018 35.4646 30.8882 35.4646C30.9745 35.4646 31.0573 35.4303 31.1183 35.3692C31.1794 35.3082 31.2137 35.2254 31.2137 35.1391V10.5122C31.2143 10.4583 31.2015 10.4051 31.1765 10.3574C31.1515 10.3097 31.1151 10.2689 31.0704 10.2388Z" fill="black"/>
</g>
</g>
</g>
<defs>
<clipPath id="clip0_1_2330">
<rect width="40" height="40" fill="white" transform="translate(0.5 0.625488)"/>
</clipPath>
<clipPath id="clip1_1_2330">
<rect width="40" height="40" fill="white" transform="translate(0.5 0.625488)"/>
</clipPath>
<clipPath id="clip2_1_2330">
<rect width="40" height="40" fill="white" transform="translate(0.5 0.625488)"/>
</clipPath>
</defs>
</svg>
