<svg width="41" height="41" viewBox="0 0 41 41" fill="none" xmlns="http://www.w3.org/2000/svg">
<g clip-path="url(#clip0_1_2344)">
<g clip-path="url(#clip1_1_2344)">
<g clip-path="url(#clip2_1_2344)">
<path d="M24.7048 39.9504H15.0753C14.9879 39.9504 14.9042 39.9851 14.8425 40.0468C14.7807 40.1086 14.746 40.1923 14.746 40.2796C14.746 40.3669 14.7807 40.4507 14.8425 40.5124C14.9042 40.5741 14.9879 40.6088 15.0753 40.6088H24.7048C24.7921 40.6088 24.8758 40.5741 24.9376 40.5124C24.9993 40.4507 25.034 40.3669 25.034 40.2796C25.034 40.1923 24.9993 40.1086 24.9376 40.0468C24.8758 39.9851 24.7921 39.9504 24.7048 39.9504ZM13.2909 39.9504H11.7271C11.6398 39.9504 11.5561 39.9851 11.4944 40.0468C11.4326 40.1086 11.3979 40.1923 11.3979 40.2796C11.3979 40.3669 11.4326 40.4507 11.4944 40.5124C11.5561 40.5741 11.6398 40.6088 11.7271 40.6088H13.2909C13.3782 40.6088 13.462 40.5741 13.5237 40.5124C13.5854 40.4507 13.6201 40.3669 13.6201 40.2796C13.6201 40.1923 13.5854 40.1086 13.5237 40.0468C13.462 39.9851 13.3782 39.9504 13.2909 39.9504ZM38.2816 39.9504H35.2265C35.3871 39.7273 35.4829 39.4641 35.503 39.1899L35.9014 33.1554C36.3905 33.0957 36.7387 32.6509 36.679 32.1617C36.6527 31.9465 36.5489 31.7481 36.387 31.6038C36.2251 31.4595 36.0162 31.3791 35.7993 31.3776H32.8364V29.9554C34.8606 29.8665 36.4299 28.1542 36.3425 26.13C36.3425 26.0426 36.3078 25.9589 36.2461 25.8972C36.1844 25.8354 36.1006 25.8007 36.0133 25.8007C35.5043 25.7795 34.9964 25.8639 34.5216 26.0486C34.0468 26.2333 33.6154 26.5144 33.2545 26.874C33.0938 27.035 32.9493 27.2114 32.8232 27.4007V25.7547C34.8458 25.6639 36.4145 23.9553 36.3327 21.9325C36.3327 21.8452 36.298 21.7614 36.2362 21.6997C36.1745 21.6379 36.0907 21.6033 36.0034 21.6033C35.4959 21.5851 34.9901 21.672 34.5176 21.8584C34.0452 22.0447 33.6163 22.3266 33.2578 22.6864C33.0971 22.8474 32.9526 23.0238 32.8265 23.2131V22.3374C34.2588 20.9027 34.2569 18.5785 32.8222 17.1462C32.7849 17.109 32.7468 17.0726 32.708 17.037C32.6471 16.9806 32.5672 16.9492 32.4841 16.9492C32.4011 16.9492 32.3211 16.9806 32.2603 17.037C30.7652 18.4063 30.6632 20.7282 32.0324 22.2233C32.0763 22.2713 32.1216 22.3181 32.1681 22.3637V23.1934C32.0433 23.0119 31.9023 22.8422 31.7467 22.6864C31.3867 22.325 30.9556 22.0421 30.4808 21.8557C30.0059 21.6693 29.4976 21.5833 28.9879 21.6033C28.9006 21.6033 28.8168 21.6379 28.7551 21.6997C28.6933 21.7614 28.6587 21.8452 28.6587 21.9325C28.5768 23.9553 30.1456 25.6639 32.1681 25.7547V27.4007C31.8174 26.8872 31.3409 26.472 30.7842 26.1948C30.2275 25.9176 29.6091 25.7876 28.9879 25.8172C28.9006 25.8172 28.8168 25.8519 28.7551 25.9136C28.6933 25.9754 28.6587 26.0591 28.6587 26.1464C28.5806 28.1656 30.1493 29.8681 32.1681 29.9554V31.3776H29.2052C28.7124 31.3809 28.3157 31.7831 28.319 32.2757C28.3204 32.4926 28.4008 32.7015 28.5451 32.8634C28.6895 33.0254 28.8878 33.1291 29.1031 33.1554L29.5014 39.1899C29.5216 39.4641 29.6173 39.7273 29.778 39.9504H27.0883C27.001 39.9504 26.9173 39.9851 26.8555 40.0468C26.7938 40.1086 26.7591 40.1923 26.7591 40.2796C26.7591 40.3669 26.7938 40.4507 26.8555 40.5124C26.9173 40.5741 27.001 40.6088 27.0883 40.6088H38.2816C38.3689 40.6088 38.4527 40.5741 38.5144 40.5124C38.5761 40.4507 38.6108 40.3669 38.6108 40.2796C38.6108 40.1923 38.5761 40.1086 38.5144 40.0468C38.4527 39.9851 38.3689 39.9504 38.2816 39.9504ZM33.722 27.3513H33.7319C34.2514 26.8293 34.9455 26.5174 35.6808 26.4756C35.5843 27.9951 34.3724 29.2055 32.8529 29.3003C32.8948 28.5663 33.2039 27.873 33.722 27.3513ZM35.6709 22.2617C35.6334 23.0064 35.3201 23.7106 34.7919 24.237L34.7985 24.2205C34.2787 24.7427 33.5851 25.0556 32.8496 25.0995C32.9394 23.5773 34.1492 22.3604 35.6709 22.2617ZM30.2126 24.237C29.6844 23.7106 29.3711 23.0064 29.3335 22.2617C30.8543 22.3567 32.0665 23.5689 32.1615 25.0896C31.4296 25.0528 30.7363 24.7496 30.2126 24.237ZM30.2126 28.4213V28.4378C29.6903 27.9193 29.3774 27.2267 29.3335 26.4921C30.8544 26.584 32.0678 27.796 32.1615 29.3168C31.4228 29.2722 30.7276 28.9527 30.2126 28.4213ZM32.494 17.7482C33.504 18.8902 33.504 20.6061 32.494 21.7481C31.484 20.6061 31.484 18.8902 32.494 17.7482ZM34.0281 39.9142C33.9776 39.9141 33.9278 39.9265 33.8833 39.9504H31.1212C31.0766 39.9265 31.0269 39.9141 30.9763 39.9142C30.7677 39.913 30.5672 39.8329 30.4151 39.69C30.2631 39.5471 30.1707 39.352 30.1566 39.1438L29.7615 33.162H30.0907C30.1781 33.162 30.2618 33.1273 30.3235 33.0656C30.3853 33.0038 30.42 32.9201 30.42 32.8328C30.42 32.7455 30.3853 32.6617 30.3235 32.6C30.2618 32.5382 30.1781 32.5036 30.0907 32.5036H29.2019C29.1712 32.5036 29.1408 32.4976 29.1124 32.4859C29.084 32.4742 29.0582 32.457 29.0365 32.4353C29.0147 32.4137 28.9975 32.3879 28.9857 32.3596C28.9739 32.3312 28.9678 32.3008 28.9678 32.2701C28.9677 32.2394 28.9737 32.209 28.9855 32.1807C28.9972 32.1523 29.0143 32.1265 29.036 32.1048C29.0577 32.083 29.0834 32.0658 29.1118 32.054C29.1401 32.0422 29.1705 32.0361 29.2012 32.0361H35.7862C35.8183 32.0338 35.8505 32.0382 35.8807 32.0489C35.911 32.0596 35.9388 32.0765 35.9623 32.0984C35.9857 32.1204 36.0045 32.1469 36.0172 32.1764C36.03 32.2059 36.0365 32.2377 36.0364 32.2698C36.0356 32.3315 36.0107 32.3905 35.967 32.4342C35.9234 32.4778 35.8644 32.5027 35.8027 32.5036H31.5822C31.4949 32.5036 31.4111 32.5382 31.3494 32.6C31.2876 32.6617 31.253 32.7455 31.253 32.8328C31.253 32.9201 31.2876 33.0038 31.3494 33.0656C31.4111 33.1273 31.4949 33.162 31.5822 33.162H35.2463L34.848 39.1438C34.8338 39.352 34.7415 39.5472 34.5894 39.6901C34.4373 39.8329 34.2368 39.913 34.0281 39.9142ZM16.6654 27.9934H13.2909C13.2036 27.9934 13.1199 28.0281 13.0581 28.0898C12.9964 28.1516 12.9617 28.2353 12.9617 28.3226C12.9617 28.4099 12.9964 28.4937 13.0581 28.5554C13.1199 28.6171 13.2036 28.6518 13.2909 28.6518H16.6654C16.7527 28.6518 16.8364 28.6171 16.8982 28.5554C16.9599 28.4937 16.9946 28.4099 16.9946 28.3226C16.9946 28.2353 16.9599 28.1516 16.8982 28.0898C16.8364 28.0281 16.7527 27.9934 16.6654 27.9934ZM10.4893 34.6895H9.91646C9.82915 34.6895 9.74541 34.7242 9.68367 34.786C9.62193 34.8477 9.58725 34.9314 9.58725 35.0188C9.58725 35.1061 9.62193 35.1898 9.68367 35.2515C9.74541 35.3133 9.82915 35.348 9.91646 35.348H10.4893C10.5766 35.348 10.6603 35.3133 10.7221 35.2515C10.7838 35.1898 10.8185 35.1061 10.8185 35.0188C10.8185 34.9314 10.7838 34.8477 10.7221 34.786C10.6603 34.7242 10.5766 34.6895 10.4893 34.6895ZM8.53047 34.6895H6.78234C6.69503 34.6895 6.61129 34.7242 6.54955 34.786C6.48781 34.8477 6.45312 34.9314 6.45312 35.0188C6.45312 35.1061 6.48781 35.1898 6.54955 35.2515C6.61129 35.3133 6.69503 35.348 6.78234 35.348H8.53047C8.61778 35.348 8.70152 35.3133 8.76326 35.2515C8.825 35.1898 8.85968 35.1061 8.85968 35.0188C8.85968 34.9314 8.825 34.8477 8.76326 34.786C8.70152 34.7242 8.61778 34.6895 8.53047 34.6895Z" fill="black"/>
<path d="M35.8353 13.6069H31.4238V6.06127H35.4567C35.544 6.06127 35.6277 6.02659 35.6894 5.96485C35.7512 5.90311 35.7859 5.81937 35.7859 5.73206C35.7859 5.64475 35.7512 5.56101 35.6894 5.49927C35.6277 5.43753 35.544 5.40284 35.4567 5.40284H31.4238V1.28766H35.4567C35.544 1.28766 35.6277 1.25297 35.6894 1.19123C35.7512 1.1295 35.7859 1.04576 35.7859 0.958445C35.7859 0.871132 35.7512 0.787395 35.6894 0.725655C35.6277 0.663915 35.544 0.62923 35.4567 0.62923H31.1275C31.0823 0.622094 31.036 0.625192 30.9921 0.638296C30.9483 0.6514 30.9079 0.674177 30.874 0.70495L3.00597 24.7804C2.2649 25.4161 2.17956 26.5323 2.81535 27.2733C2.96091 27.4429 3.1373 27.5835 3.33518 27.6874H3.34506C3.63172 27.8367 3.95373 27.9049 4.27632 27.8846C4.59891 27.8643 4.90982 27.7563 5.17549 27.5722C5.2474 27.5226 5.2967 27.4466 5.31254 27.3607C5.32837 27.2749 5.30945 27.1862 5.25993 27.1143L5.2578 27.1113C5.20795 27.0398 5.13179 26.9909 5.046 26.9755C4.96022 26.9601 4.87182 26.9793 4.80019 27.029C4.29443 27.3781 3.60143 27.2511 3.2523 26.7453C3.12539 26.5615 3.05676 26.3437 3.05535 26.1203C3.05523 25.9604 3.08957 25.8024 3.15604 25.6569C3.22251 25.5115 3.31954 25.3821 3.44053 25.2775L8.47093 20.9451V32.8989H3.71378C3.62647 32.8989 3.54273 32.9335 3.48099 32.9953C3.41925 33.057 3.38456 33.1408 3.38456 33.2281C3.38456 33.3154 3.41925 33.3991 3.48099 33.4609C3.54273 33.5226 3.62647 33.5573 3.71378 33.5573H4.37221V40.2963C4.37221 40.3836 4.40689 40.4674 4.46863 40.5291C4.53037 40.5908 4.61411 40.6255 4.70142 40.6255H10.1335C10.2208 40.6255 10.3045 40.5908 10.3663 40.5291C10.428 40.4674 10.4627 40.3836 10.4627 40.2963C10.4627 40.209 10.428 40.1253 10.3663 40.0635C10.3045 40.0018 10.2208 39.9671 10.1335 39.9671H5.03064V33.5408H11.8421C11.9294 33.5408 12.0131 33.5061 12.0749 33.4444C12.1366 33.3827 12.1713 33.2989 12.1713 33.2116V27.1146H19.8025C19.8898 27.1146 19.9736 27.0799 20.0353 27.0181C20.097 26.9564 20.1317 26.8727 20.1317 26.7853V20.6883H27.0156C27.1029 20.6883 27.1866 20.6536 27.2484 20.5919C27.3101 20.5301 27.3448 20.4464 27.3448 20.3591V14.2653H35.506V20.7015C35.506 20.7888 35.5407 20.8725 35.6025 20.9342C35.6642 20.996 35.7479 21.0307 35.8353 21.0307C35.9226 21.0307 36.0063 20.996 36.068 20.9342C36.1298 20.8725 36.1645 20.7888 36.1645 20.7015V13.9361C36.1645 13.8488 36.1298 13.765 36.068 13.7033C36.0063 13.6416 35.9226 13.6069 35.8353 13.6069ZM15.8947 26.4561H10.8347C10.7474 26.4561 10.6636 26.4908 10.6019 26.5525C10.5402 26.6143 10.5055 26.698 10.5055 26.7853C10.5055 26.8727 10.5402 26.9564 10.6019 27.0181C10.6636 27.0799 10.7474 27.1146 10.8347 27.1146H11.5129V32.8824H9.12936V25.1393L15.8947 19.299V26.4561ZM15.8947 18.4167L9.12936 24.2668V20.3591L15.8947 14.5089V18.4167ZM23.335 20.0299H18.7951C18.7078 20.0299 18.6241 20.0646 18.5623 20.1264C18.5006 20.1881 18.4659 20.2718 18.4659 20.3591C18.4659 20.4465 18.5006 20.5302 18.5623 20.5919C18.6241 20.6537 18.7078 20.6884 18.7951 20.6884H19.4733V26.4562H16.5532V18.7197L23.335 12.8695V20.0299ZM23.335 12.0004L16.5532 17.8505V13.9395L23.335 8.10578V12.0004ZM30.7654 13.6069L27.0222 13.6168H26.0214C25.9341 13.6168 25.8503 13.6514 25.7886 13.7132C25.7268 13.7749 25.6922 13.8587 25.6922 13.946C25.6922 14.0333 25.7268 14.117 25.7886 14.1788C25.8503 14.2405 25.9341 14.2752 26.0214 14.2752H26.6798V20.0299H23.9934V12.2999L30.7654 6.45962V13.6069ZM30.7654 5.5807L23.9934 11.4308V7.51978L30.7654 1.66963V5.5807Z" fill="black"/>
</g>
</g>
</g>
<defs>
<clipPath id="clip0_1_2344">
<rect width="40" height="40" fill="white" transform="translate(0.5 0.625488)"/>
</clipPath>
<clipPath id="clip1_1_2344">
<rect width="40" height="40" fill="white" transform="translate(0.5 0.625488)"/>
</clipPath>
<clipPath id="clip2_1_2344">
<rect width="40" height="40" fill="white" transform="translate(0.5 0.625488)"/>
</clipPath>
</defs>
</svg>
