<svg width="41" height="41" viewBox="0 0 41 41" fill="none" xmlns="http://www.w3.org/2000/svg">
<g clip-path="url(#clip0_1_2378)">
<g clip-path="url(#clip1_1_2378)">
<g clip-path="url(#clip2_1_2378)">
<path d="M39.3787 9.881L39.3689 9.88108H38.429V7.39526C38.429 7.3093 38.3949 7.22686 38.3341 7.16608C38.2733 7.10531 38.1909 7.07116 38.1049 7.07116H34.7927V1.14343C34.7927 1.05748 34.7585 0.975042 34.6977 0.914262C34.637 0.853482 34.5545 0.819336 34.4686 0.819336H4.51557C4.42961 0.819336 4.34717 0.853482 4.28639 0.914262C4.22561 0.975042 4.19147 1.05748 4.19147 1.14343V33.0734H4.091C2.05648 33.1254 0.449288 34.8167 0.501224 36.8512C0.546841 38.6387 1.86907 40.1355 3.63726 40.4013C3.67899 40.4203 3.72429 40.4302 3.77014 40.4304H30.4951C30.5135 40.432 30.5319 40.432 30.5502 40.4304H30.7641C32.7509 40.4304 34.8024 39.0789 34.8024 36.82V16.5153L39.6185 15.462C39.8675 15.4069 40.0904 15.2688 40.2505 15.0703C40.4107 14.8719 40.4987 14.6248 40.5 14.3698V11.0025C40.5001 10.3831 39.998 9.88108 39.3787 9.881ZM4.07479 39.7952C2.39759 39.7959 1.03736 38.437 1.03663 36.7598C1.0359 35.0826 2.39484 33.7224 4.07204 33.7216H28.677C26.9998 34.865 26.567 37.1514 27.7103 38.8286C27.9693 39.2084 28.2971 39.5363 28.677 39.7952H4.07479ZM34.1542 15.9935L31.2373 16.6417C30.9416 16.708 30.6768 16.872 30.4857 17.1072C30.2946 17.3424 30.1883 17.6351 30.184 17.9381V18.8132C29.9228 18.8835 29.6918 19.0376 29.5267 19.2519C29.3616 19.4662 29.2714 19.7288 29.2701 19.9994V28.3643C29.2351 29.0472 29.7603 29.6291 30.4431 29.6641C31.126 29.6991 31.7079 29.1739 31.7429 28.491C31.7451 28.4488 31.7451 28.4066 31.7429 28.3644V20.0059C31.741 19.7341 31.6494 19.4705 31.4824 19.2561C31.3154 19.0416 31.0823 18.8882 30.8192 18.8197V17.9447C30.8192 17.7866 30.8732 17.6333 30.9722 17.5101C31.0713 17.387 31.2094 17.3013 31.3637 17.2673L34.1542 16.658L34.1445 36.8363C34.1445 38.6901 32.4203 39.7985 30.7544 39.7985C29.0772 39.7982 27.7179 38.4383 27.7182 36.7612C27.7185 35.1612 28.9601 33.8359 30.5567 33.7314C31.5868 33.7902 32.4286 34.5748 32.5596 35.5982C32.7091 36.5224 32.0812 37.3927 31.157 37.5422L31.1531 37.5428C30.454 37.646 29.801 37.1703 29.6849 36.4733C29.607 35.9482 29.9648 35.4576 30.4887 35.3714C30.5739 35.3572 30.6501 35.31 30.7007 35.24C30.7513 35.17 30.7723 35.0829 30.7591 34.9976C30.7458 34.9122 30.6995 34.8355 30.63 34.7841C30.5606 34.7328 30.4737 34.7109 30.3882 34.7232C29.5123 34.8659 28.9142 35.6865 29.0464 36.564C29.2039 37.4953 30.0076 38.1788 30.9521 38.1845C31.053 38.185 31.1539 38.1775 31.2535 38.1618C32.5242 37.9576 33.3924 36.7668 33.1981 35.4945C33.0206 34.1477 31.898 33.125 30.5405 33.0735H4.83966V1.46753H34.1445V7.07116H22.8627C22.7767 7.07116 22.6943 7.10531 22.6335 7.16608C22.5727 7.22686 22.5386 7.3093 22.5386 7.39526V9.88108H22.0038C21.9179 9.88108 21.8354 9.91522 21.7746 9.976C21.7139 10.0368 21.6797 10.1192 21.6797 10.2052C21.6797 10.2911 21.7139 10.3736 21.7746 10.4343C21.8354 10.4951 21.9179 10.5293 22.0038 10.5293H22.5386V13.0183C22.5386 13.1043 22.5727 13.1867 22.6335 13.2475C22.6943 13.3083 22.7767 13.3424 22.8627 13.3424H24.9563V13.4137C24.9563 14.2747 25.6543 14.9726 26.5152 14.9726C27.3762 14.9726 28.0741 14.2747 28.0741 13.4137C28.0758 13.39 28.0758 13.3662 28.0741 13.3424H34.1542V15.9935ZM30.5373 28.9962C30.4527 29.0025 30.3677 28.9905 30.2882 28.9609C30.2087 28.9314 30.1365 28.885 30.0765 28.825C30.0165 28.7651 29.9702 28.6928 29.9406 28.6133C29.9111 28.5338 29.8991 28.4488 29.9054 28.3642V20.0058C29.9054 19.8502 29.9672 19.701 30.0772 19.591C30.1872 19.481 30.3364 19.4192 30.492 19.4192H30.4952C30.6508 19.4192 30.8 19.481 30.91 19.591C31.02 19.701 31.0818 19.8502 31.0818 20.0058V28.3642C31.0934 28.5202 31.0426 28.6745 30.9404 28.793C30.8383 28.9115 30.6933 28.9846 30.5373 28.9962ZM25.5883 13.4137C25.594 13.3223 25.6148 13.2326 25.6499 13.148C25.8755 12.6282 26.1593 12.1357 26.4958 11.6798C26.8317 12.1372 27.1155 12.6307 27.3417 13.1512C27.3826 13.2338 27.41 13.3224 27.4227 13.4137H27.4097C27.4097 13.9167 27.002 14.3244 26.499 14.3244C25.996 14.3244 25.5883 13.9167 25.5883 13.4137ZM27.8732 12.6942C27.5675 12.0624 27.1972 11.4639 26.768 10.9085C26.7377 10.8694 26.6989 10.8378 26.6545 10.8161C26.6102 10.7944 26.5614 10.7831 26.512 10.7831C26.4626 10.7831 26.4138 10.7944 26.3695 10.8161C26.3251 10.8378 26.2863 10.8694 26.256 10.9085C25.8263 11.4595 25.4548 12.0536 25.1476 12.6813H23.203V7.71935H37.7873L37.7808 12.6942H27.8732ZM39.8518 14.3698C39.8507 14.4773 39.8133 14.5813 39.7457 14.6649C39.678 14.7484 39.584 14.8066 39.4791 14.83L34.8024 15.8509V13.3424H38.1147C38.2006 13.3424 38.2831 13.3083 38.3438 13.2475C38.4046 13.1867 38.4388 13.1043 38.4388 13.0183V10.5293H39.3786C39.5039 10.5301 39.6237 10.5802 39.7123 10.6688C39.8008 10.7574 39.851 10.8772 39.8518 11.0025V14.3698Z" fill="black"/>
<path d="M8.2978 5.34076C8.21184 5.34076 8.12941 5.37491 8.06863 5.43569C8.00785 5.49647 7.9737 5.57891 7.9737 5.66486V5.98896C7.9737 6.07491 8.00785 6.15735 8.06863 6.21813C8.12941 6.27891 8.21184 6.31305 8.2978 6.31305C8.38375 6.31305 8.46619 6.27891 8.52697 6.21813C8.58775 6.15735 8.62189 6.07491 8.62189 5.98896V5.66486C8.62189 5.57891 8.58775 5.49647 8.52697 5.43569C8.46619 5.37491 8.38375 5.34076 8.2978 5.34076ZM8.2978 3.32812C8.21184 3.32812 8.12941 3.36227 8.06863 3.42305C8.00785 3.48383 7.9737 3.56627 7.9737 3.65222V3.97632C7.9737 4.06227 8.00785 4.14471 8.06863 4.20549C8.12941 4.26627 8.21184 4.30041 8.2978 4.30041C8.38375 4.30041 8.46619 4.26627 8.52697 4.20549C8.58775 4.14471 8.62189 4.06227 8.62189 3.97632V3.65222C8.62189 3.56627 8.58775 3.48383 8.52697 3.42305C8.46619 3.36227 8.38375 3.32812 8.2978 3.32812ZM7.4519 4.49811H7.12781C7.04185 4.49811 6.95942 4.53226 6.89864 4.59304C6.83786 4.65382 6.80371 4.73625 6.80371 4.82221C6.80371 4.90817 6.83786 4.9906 6.89864 5.05138C6.95942 5.11216 7.04185 5.14631 7.12781 5.14631H7.4519C7.53786 5.14631 7.62029 5.11216 7.68107 5.05138C7.74185 4.9906 7.776 4.90817 7.776 4.82221C7.776 4.73625 7.74185 4.65382 7.68107 4.59304C7.62029 4.53226 7.53786 4.49811 7.4519 4.49811ZM9.46778 4.49811H9.14369C9.05773 4.49811 8.9753 4.53226 8.91452 4.59304C8.85374 4.65382 8.81959 4.73625 8.81959 4.82221C8.81959 4.90817 8.85374 4.9906 8.91452 5.05138C8.9753 5.11216 9.05773 5.14631 9.14369 5.14631H9.46778C9.55374 5.14631 9.63618 5.11216 9.69696 5.05138C9.75774 4.9906 9.79188 4.90817 9.79188 4.82221C9.79188 4.73625 9.75774 4.65382 9.69696 4.59304C9.63618 4.53226 9.55374 4.49811 9.46778 4.49811ZM15.7164 5.34076C15.6304 5.34076 15.548 5.37491 15.4872 5.43569C15.4264 5.49647 15.3923 5.57891 15.3923 5.66486V5.98896C15.3923 6.07491 15.4264 6.15735 15.4872 6.21813C15.548 6.27891 15.6304 6.31305 15.7164 6.31305C15.8023 6.31305 15.8848 6.27891 15.9455 6.21813C16.0063 6.15735 16.0405 6.07491 16.0405 5.98896V5.66486C16.0405 5.57891 16.0063 5.49647 15.9455 5.43569C15.8848 5.37491 15.8023 5.34076 15.7164 5.34076ZM15.7164 3.32812C15.6304 3.32812 15.548 3.36227 15.4872 3.42305C15.4264 3.48383 15.3923 3.56627 15.3923 3.65222V3.97632C15.3923 4.06227 15.4264 4.14471 15.4872 4.20549C15.548 4.26627 15.6304 4.30041 15.7164 4.30041C15.8023 4.30041 15.8848 4.26627 15.9455 4.20549C16.0063 4.14471 16.0405 4.06227 16.0405 3.97632V3.65222C16.0405 3.56627 16.0063 3.48383 15.9455 3.42305C15.8848 3.36227 15.8023 3.32812 15.7164 3.32812ZM14.8737 4.49811H14.5496C14.4637 4.49811 14.3812 4.53226 14.3204 4.59304C14.2597 4.65382 14.2255 4.73625 14.2255 4.82221C14.2255 4.90817 14.2597 4.9906 14.3204 5.05138C14.3812 5.11216 14.4637 5.14631 14.5496 5.14631H14.8737C14.9597 5.14631 15.0421 5.11216 15.1029 5.05138C15.1637 4.9906 15.1978 4.90817 15.1978 4.82221C15.1978 4.73625 15.1637 4.65382 15.1029 4.59304C15.0421 4.53226 14.9597 4.49811 14.8737 4.49811ZM16.8831 4.49811H16.559C16.4731 4.49811 16.3906 4.53226 16.3298 4.59304C16.2691 4.65382 16.2349 4.73625 16.2349 4.82221C16.2349 4.90817 16.2691 4.9906 16.3298 5.05138C16.3906 5.11216 16.4731 5.14631 16.559 5.14631H16.8831C16.9691 5.14631 17.0515 5.11216 17.1123 5.05138C17.1731 4.9906 17.2072 4.90817 17.2072 4.82221C17.2072 4.73625 17.1731 4.65382 17.1123 4.59304C17.0515 4.53226 16.9691 4.49811 16.8831 4.49811ZM23.1349 5.34401C23.049 5.34401 22.9665 5.37815 22.9058 5.43893C22.845 5.49971 22.8108 5.58215 22.8108 5.6681V5.9922C22.8108 6.07815 22.845 6.16059 22.9058 6.22137C22.9665 6.28215 23.049 6.3163 23.1349 6.3163C23.2209 6.3163 23.3033 6.28215 23.3641 6.22137C23.4249 6.16059 23.459 6.07815 23.459 5.9922V5.6681C23.459 5.58215 23.4249 5.49971 23.3641 5.43893C23.3033 5.37815 23.2209 5.34401 23.1349 5.34401ZM23.1349 3.33137C23.049 3.33137 22.9665 3.36551 22.9058 3.42629C22.845 3.48707 22.8108 3.56951 22.8108 3.65546V3.97956C22.8108 4.06551 22.845 4.14795 22.9058 4.20873C22.9665 4.26951 23.049 4.30366 23.1349 4.30366C23.2209 4.30366 23.3033 4.26951 23.3641 4.20873C23.4249 4.14795 23.459 4.06551 23.459 3.97956V3.65546C23.459 3.56951 23.4249 3.48707 23.3641 3.42629C23.3033 3.36551 23.2209 3.33137 23.1349 3.33137ZM22.289 4.49811H21.9649C21.879 4.49811 21.7966 4.53226 21.7358 4.59304C21.675 4.65382 21.6409 4.73625 21.6409 4.82221C21.6409 4.90817 21.675 4.9906 21.7358 5.05138C21.7966 5.11216 21.879 5.14631 21.9649 5.14631H22.289C22.375 5.14631 22.4574 5.11216 22.5182 5.05138C22.579 4.9906 22.6131 4.90817 22.6131 4.82221C22.6131 4.73625 22.579 4.65382 22.5182 4.59304C22.4574 4.53226 22.375 4.49811 22.289 4.49811ZM24.3017 4.49811H23.9776C23.8916 4.49811 23.8092 4.53226 23.7484 4.59304C23.6876 4.65382 23.6535 4.73625 23.6535 4.82221C23.6535 4.90817 23.6876 4.9906 23.7484 5.05138C23.8092 5.11216 23.8916 5.14631 23.9776 5.14631H24.3017C24.3876 5.14631 24.4701 5.11216 24.5309 5.05138C24.5916 4.9906 24.6258 4.90817 24.6258 4.82221C24.6258 4.73625 24.5916 4.65382 24.5309 4.59304C24.4701 4.53226 24.3876 4.49811 24.3017 4.49811ZM30.5567 5.34401C30.4708 5.34401 30.3884 5.37815 30.3276 5.43893C30.2668 5.49971 30.2326 5.58215 30.2326 5.6681V5.9922C30.2326 6.07815 30.2668 6.16059 30.3276 6.22137C30.3884 6.28215 30.4708 6.3163 30.5567 6.3163C30.6427 6.3163 30.7251 6.28215 30.7859 6.22137C30.8467 6.16059 30.8808 6.07815 30.8808 5.9922V5.6681C30.8808 5.58215 30.8467 5.49971 30.7859 5.43893C30.7251 5.37815 30.6427 5.34401 30.5567 5.34401ZM30.5567 3.33137C30.4708 3.33137 30.3884 3.36551 30.3276 3.42629C30.2668 3.48707 30.2326 3.56951 30.2326 3.65546V3.97956C30.2326 4.06551 30.2668 4.14795 30.3276 4.20873C30.3884 4.26951 30.4708 4.30366 30.5567 4.30366C30.6427 4.30366 30.7251 4.26951 30.7859 4.20873C30.8467 4.14795 30.8808 4.06551 30.8808 3.97956V3.65546C30.8808 3.56951 30.8467 3.48707 30.7859 3.42629C30.7251 3.36551 30.6427 3.33137 30.5567 3.33137ZM29.7076 4.49811H29.3835C29.2976 4.49811 29.2151 4.53226 29.1543 4.59304C29.0936 4.65382 29.0594 4.73625 29.0594 4.82221C29.0594 4.90817 29.0936 4.9906 29.1543 5.05138C29.2151 5.11216 29.2976 5.14631 29.3835 5.14631H29.7076C29.7936 5.14631 29.876 5.11216 29.9368 5.05138C29.9976 4.9906 30.0317 4.90817 30.0317 4.82221C30.0317 4.73625 29.9976 4.65382 29.9368 4.59304C29.876 4.53226 29.7936 4.49811 29.7076 4.49811ZM31.7235 4.49811H31.3994C31.3134 4.49811 31.231 4.53226 31.1702 4.59304C31.1094 4.65382 31.0753 4.73625 31.0753 4.82221C31.0753 4.90817 31.1094 4.9906 31.1702 5.05138C31.231 5.11216 31.3134 5.14631 31.3994 5.14631H31.7235C31.8095 5.14631 31.8919 5.11216 31.9527 5.05138C32.0134 4.9906 32.0476 4.90817 32.0476 4.82221C32.0476 4.73625 32.0134 4.65382 31.9527 4.59304C31.8919 4.53226 31.8095 4.49811 31.7235 4.49811ZM13.2403 9.66745L13.0102 9.43735C12.9494 9.37698 12.8673 9.3431 12.7817 9.3431C12.6961 9.3431 12.6139 9.37698 12.5532 9.43735C12.523 9.46732 12.4989 9.50295 12.4825 9.54221C12.466 9.58146 12.4575 9.62357 12.4573 9.66614C12.4571 9.7087 12.4654 9.75088 12.4815 9.79027C12.4976 9.82966 12.5213 9.86548 12.5513 9.8957L12.5532 9.89756L12.7833 10.1277C12.8447 10.1863 12.9267 10.2186 13.0116 10.2174C13.0965 10.2163 13.1776 10.1819 13.2375 10.1217C13.2973 10.0614 13.3311 9.98006 13.3317 9.89513C13.3322 9.8102 13.2994 9.72845 13.2403 9.66745ZM11.8304 8.24467L11.6003 8.01456C11.5704 7.98434 11.5347 7.96032 11.4955 7.94387C11.4562 7.92743 11.4141 7.91887 11.3715 7.9187C11.329 7.91852 11.2868 7.92674 11.2474 7.94286C11.208 7.95899 11.1722 7.98272 11.142 8.0127L11.1401 8.01456C11.0798 8.07529 11.0459 8.15743 11.0459 8.24305C11.0459 8.32867 11.0798 8.41081 11.1401 8.47154L11.3735 8.70165C11.4333 8.76271 11.5149 8.79766 11.6003 8.79888C11.6647 8.79925 11.7277 8.78045 11.7814 8.74486C11.835 8.70927 11.8769 8.65852 11.9015 8.59906C11.9262 8.53961 11.9327 8.47415 11.92 8.41104C11.9073 8.34792 11.8762 8.29 11.8304 8.24467ZM11.8323 9.43921L11.8304 9.43735C11.7697 9.37698 11.6876 9.3431 11.602 9.3431C11.5163 9.3431 11.4342 9.37698 11.3735 9.43735L11.1401 9.66745C11.1099 9.69743 11.0859 9.73306 11.0694 9.77232C11.053 9.81157 11.0444 9.85368 11.0443 9.89625C11.0441 9.93881 11.0523 9.98099 11.0684 10.0204C11.0846 10.0598 11.1083 10.0956 11.1383 10.1258L11.1401 10.1277C11.1701 10.1579 11.2057 10.1819 11.245 10.1984C11.2842 10.2148 11.3264 10.2234 11.3689 10.2235C11.4115 10.2237 11.4537 10.2155 11.493 10.1994C11.5324 10.1832 11.5683 10.1595 11.5985 10.1295L11.6003 10.1277L11.8304 9.89756C11.8607 9.86759 11.8847 9.83196 11.9011 9.7927C11.9176 9.75345 11.9261 9.71133 11.9263 9.66877C11.9265 9.62621 11.9183 9.58403 11.9021 9.54464C11.886 9.50525 11.8623 9.46943 11.8323 9.43921ZM13.2757 8.01456C13.2453 7.97904 13.2075 7.95052 13.165 7.93097C13.1225 7.91142 13.0763 7.90129 13.0295 7.90129C12.9828 7.90129 12.9365 7.91142 12.894 7.93097C12.8516 7.95052 12.8138 7.97904 12.7834 8.01456L12.5533 8.24467C12.4929 8.30539 12.459 8.38754 12.459 8.47316C12.459 8.55878 12.4929 8.64092 12.5533 8.70165C12.6131 8.76271 12.6946 8.79766 12.7801 8.79888C12.823 8.7987 12.8654 8.79001 12.9049 8.77332C12.9444 8.75663 12.9802 8.73227 13.0102 8.70165L13.2403 8.47154C13.3056 8.41562 13.346 8.33607 13.3527 8.25037C13.3593 8.16467 13.3316 8.07985 13.2757 8.01456ZM20.607 9.66745L20.3769 9.43735C20.3155 9.3781 20.2333 9.34532 20.148 9.34608C20.0626 9.34684 19.981 9.38107 19.9207 9.4414C19.8604 9.50173 19.8261 9.58333 19.8254 9.66865C19.8246 9.75397 19.8574 9.83617 19.9167 9.89756L20.15 10.1277C20.1802 10.1577 20.2161 10.1814 20.2555 10.1976C20.2949 10.2138 20.3371 10.222 20.3796 10.2218C20.4222 10.2217 20.4644 10.2132 20.5036 10.1967C20.5429 10.1803 20.5786 10.1563 20.6086 10.1261C20.6386 10.0958 20.6624 10.06 20.6785 10.0206C20.6947 9.9812 20.7029 9.939 20.7028 9.89642C20.7026 9.85383 20.6941 9.81169 20.6776 9.77241C20.6612 9.73312 20.6372 9.69746 20.607 9.66745ZM19.1842 8.24467L18.9508 8.01456C18.9231 7.97658 18.8874 7.9451 18.8462 7.92232C18.805 7.89953 18.7594 7.88599 18.7124 7.88262C18.6655 7.87925 18.6184 7.88615 18.5744 7.90283C18.5304 7.9195 18.4905 7.94556 18.4576 7.97919C18.4247 8.01282 18.3995 8.05322 18.3838 8.09757C18.3681 8.14192 18.3622 8.18916 18.3666 8.23601C18.3709 8.28287 18.3855 8.3282 18.4091 8.36888C18.4328 8.40955 18.465 8.44458 18.5036 8.47154L18.724 8.70165C18.785 8.76074 18.8667 8.79356 18.9517 8.79304C19.0366 8.79251 19.1179 8.7587 19.1782 8.69885C19.2385 8.63901 19.2729 8.55791 19.274 8.47299C19.2751 8.38806 19.2429 8.30609 19.1842 8.24467ZM19.1842 9.43735C19.1232 9.37633 19.0404 9.34205 18.9541 9.34205C18.8678 9.34205 18.785 9.37633 18.724 9.43735L18.4939 9.66745C18.4348 9.72845 18.402 9.8102 18.4025 9.89513C18.403 9.98006 18.4368 10.0614 18.4967 10.1217C18.5565 10.1819 18.6376 10.2163 18.7225 10.2174C18.8075 10.2186 18.8894 10.1863 18.9508 10.1277L19.1842 9.89756C19.2144 9.86735 19.2384 9.83148 19.2548 9.792C19.2711 9.75251 19.2796 9.71019 19.2796 9.66745C19.2796 9.62472 19.2711 9.5824 19.2548 9.54291C19.2384 9.50343 19.2144 9.46756 19.1842 9.43735ZM20.6424 8.01456C20.612 7.97904 20.5742 7.95052 20.5317 7.93097C20.4892 7.91142 20.443 7.90129 20.3962 7.90129C20.3495 7.90129 20.3032 7.91142 20.2608 7.93097C20.2183 7.95052 20.1805 7.97904 20.1501 8.01456L19.9167 8.24467C19.871 8.29 19.8399 8.34792 19.8272 8.41104C19.8145 8.47415 19.821 8.53961 19.8456 8.59906C19.8703 8.65852 19.9122 8.70927 19.9658 8.74486C20.0194 8.78045 20.0825 8.79925 20.1468 8.79888C20.1897 8.7987 20.2321 8.79001 20.2716 8.77332C20.3111 8.75663 20.3469 8.73227 20.377 8.70165L20.6071 8.47154C20.6723 8.41562 20.7127 8.33607 20.7194 8.25037C20.726 8.16467 20.6983 8.07985 20.6424 8.01456ZM8.2978 13.8256C8.21184 13.8256 8.12941 13.8598 8.06863 13.9205C8.00785 13.9813 7.9737 14.0638 7.9737 14.1497V14.4738C7.9737 14.5598 8.00785 14.6422 8.06863 14.703C8.12941 14.7638 8.21184 14.7979 8.2978 14.7979C8.38375 14.7979 8.46619 14.7638 8.52697 14.703C8.58775 14.6422 8.62189 14.5598 8.62189 14.4738V14.1497C8.62189 14.0638 8.58775 13.9813 8.52697 13.9205C8.46619 13.8598 8.38375 13.8256 8.2978 13.8256ZM8.2978 11.8259C8.21184 11.8259 8.12941 11.8601 8.06863 11.9209C8.00785 11.9816 7.9737 12.0641 7.9737 12.15V12.4741C7.9737 12.5601 8.00785 12.6425 8.06863 12.7033C8.12941 12.7641 8.21184 12.7982 8.2978 12.7982C8.38375 12.7982 8.46619 12.7641 8.52697 12.7033C8.58775 12.6425 8.62189 12.5601 8.62189 12.4741V12.15C8.62189 12.0641 8.58775 11.9816 8.52697 11.9209C8.46619 11.8601 8.38375 11.8259 8.2978 11.8259ZM7.4519 12.9959H7.12781C7.04185 12.9959 6.95942 13.0301 6.89864 13.0909C6.83786 13.1516 6.80371 13.2341 6.80371 13.32C6.80371 13.406 6.83786 13.4884 6.89864 13.5492C6.95942 13.61 7.04185 13.6441 7.12781 13.6441H7.4519C7.53786 13.6441 7.62029 13.61 7.68107 13.5492C7.74185 13.4884 7.776 13.406 7.776 13.32C7.776 13.2341 7.74185 13.1516 7.68107 13.0909C7.62029 13.0301 7.53786 12.9959 7.4519 12.9959ZM9.46778 12.9959H9.14369C9.05773 12.9959 8.9753 13.0301 8.91452 13.0909C8.85374 13.1516 8.81959 13.2341 8.81959 13.32C8.81959 13.406 8.85374 13.4884 8.91452 13.5492C8.9753 13.61 9.05773 13.6441 9.14369 13.6441H9.46778C9.55374 13.6441 9.63618 13.61 9.69696 13.5492C9.75774 13.4884 9.79188 13.406 9.79188 13.32C9.79188 13.2341 9.75774 13.1516 9.69696 13.0909C9.63618 13.0301 9.55374 12.9959 9.46778 12.9959ZM15.7164 13.8256C15.6304 13.8256 15.548 13.8598 15.4872 13.9205C15.4264 13.9813 15.3923 14.0638 15.3923 14.1497V14.4738C15.3923 14.5598 15.4264 14.6422 15.4872 14.703C15.548 14.7638 15.6304 14.7979 15.7164 14.7979C15.8023 14.7979 15.8848 14.7638 15.9455 14.703C16.0063 14.6422 16.0405 14.5598 16.0405 14.4738V14.1497C16.0405 14.0638 16.0063 13.9813 15.9455 13.9205C15.8848 13.8598 15.8023 13.8256 15.7164 13.8256ZM15.7164 11.8259C15.6304 11.8259 15.548 11.8601 15.4872 11.9209C15.4264 11.9816 15.3923 12.0641 15.3923 12.15V12.4741C15.3923 12.5601 15.4264 12.6425 15.4872 12.7033C15.548 12.7641 15.6304 12.7982 15.7164 12.7982C15.8023 12.7982 15.8848 12.7641 15.9455 12.7033C16.0063 12.6425 16.0405 12.5601 16.0405 12.4741V12.15C16.0405 12.0641 16.0063 11.9816 15.9455 11.9209C15.8848 11.8601 15.8023 11.8259 15.7164 11.8259ZM14.8737 12.9959H14.5496C14.4637 12.9959 14.3812 13.0301 14.3204 13.0909C14.2597 13.1516 14.2255 13.2341 14.2255 13.32C14.2255 13.406 14.2597 13.4884 14.3204 13.5492C14.3812 13.61 14.4637 13.6441 14.5496 13.6441H14.8737C14.9597 13.6441 15.0421 13.61 15.1029 13.5492C15.1637 13.4884 15.1978 13.406 15.1978 13.32C15.1978 13.2341 15.1637 13.1516 15.1029 13.0909C15.0421 13.0301 14.9597 12.9959 14.8737 12.9959ZM16.8831 12.9959H16.559C16.4731 12.9959 16.3906 13.0301 16.3298 13.0909C16.2691 13.1516 16.2349 13.2341 16.2349 13.32C16.2349 13.406 16.2691 13.4884 16.3298 13.5492C16.3906 13.61 16.4731 13.6441 16.559 13.6441H16.8831C16.9691 13.6441 17.0515 13.61 17.1123 13.5492C17.1731 13.4884 17.2072 13.406 17.2072 13.32C17.2072 13.2341 17.1731 13.1516 17.1123 13.0909C17.0515 13.0301 16.9691 12.9959 16.8831 12.9959ZM13.2403 18.1653L13.0102 17.9352C12.9494 17.8748 12.8673 17.8409 12.7817 17.8409C12.6961 17.8409 12.6139 17.8748 12.5532 17.9352C12.523 17.9651 12.4989 18.0008 12.4825 18.04C12.466 18.0793 12.4575 18.1214 12.4573 18.1639C12.4571 18.2065 12.4654 18.2487 12.4815 18.2881C12.4976 18.3275 12.5213 18.3633 12.5513 18.3935L12.5532 18.3954L12.7833 18.6255C12.8447 18.6841 12.9267 18.7164 13.0116 18.7153C13.0965 18.7141 13.1776 18.6797 13.2375 18.6195C13.2973 18.5592 13.3311 18.4779 13.3317 18.3929C13.3322 18.308 13.2994 18.2263 13.2403 18.1653ZM11.8175 16.7425L11.5874 16.5124C11.5574 16.4822 11.5218 16.4581 11.4825 16.4417C11.4433 16.4252 11.4011 16.4167 11.3586 16.4165C11.316 16.4163 11.2738 16.4246 11.2345 16.4407C11.1951 16.4568 11.1592 16.4805 11.129 16.5105L11.1272 16.5124C11.0668 16.5731 11.0329 16.6552 11.0329 16.7409C11.0329 16.8265 11.0668 16.9086 11.1272 16.9694L11.3735 17.1995C11.4333 17.2605 11.5149 17.2955 11.6003 17.2967C11.6636 17.2946 11.7249 17.274 11.7766 17.2375C11.8283 17.2009 11.8682 17.15 11.8913 17.0911C11.9144 17.0321 11.9197 16.9677 11.9066 16.9057C11.8935 16.8438 11.8625 16.787 11.8175 16.7425ZM11.8323 17.937L11.8304 17.9352C11.7697 17.8748 11.6876 17.8409 11.602 17.8409C11.5163 17.8409 11.4342 17.8748 11.3735 17.9352L11.1401 18.1653C11.1099 18.1952 11.0859 18.2309 11.0694 18.2701C11.053 18.3094 11.0444 18.3515 11.0443 18.3941C11.0441 18.4366 11.0523 18.4788 11.0684 18.5182C11.0846 18.5576 11.1083 18.5934 11.1383 18.6236L11.1401 18.6255C11.1701 18.6557 11.2057 18.6797 11.245 18.6962C11.2842 18.7126 11.3264 18.7212 11.3689 18.7213C11.4115 18.7215 11.4537 18.7133 11.493 18.6972C11.5324 18.6811 11.5683 18.6573 11.5985 18.6273L11.6003 18.6255L11.8304 18.3954C11.8607 18.3654 11.8847 18.3298 11.9011 18.2905C11.9176 18.2513 11.9261 18.2091 11.9263 18.1666C11.9265 18.124 11.9183 18.0818 11.9021 18.0425C11.886 18.0031 11.8623 17.9672 11.8323 17.937ZM13.2049 16.5124C13.1462 16.4621 13.0714 16.4345 12.9941 16.4345C12.9168 16.4345 12.842 16.4621 12.7833 16.5124L12.5532 16.7425C12.4928 16.8032 12.4589 16.8853 12.4589 16.971C12.4589 17.0566 12.4928 17.1387 12.5532 17.1995C12.613 17.2605 12.6946 17.2955 12.7801 17.2967C12.8229 17.2965 12.8654 17.2878 12.9049 17.2711C12.9443 17.2544 12.9801 17.2301 13.0102 17.1995L13.2403 16.9694C13.2962 16.9041 13.3239 16.8192 13.3172 16.7335C13.3106 16.6478 13.2702 16.5683 13.2049 16.5124ZM20.607 18.1653L20.3769 17.9352C20.3155 17.8759 20.2333 17.8431 20.148 17.8439C20.0626 17.8447 19.981 17.8789 19.9207 17.9392C19.8604 17.9995 19.8261 18.0811 19.8254 18.1665C19.8246 18.2518 19.8574 18.334 19.9167 18.3954L20.15 18.6255C20.2114 18.6841 20.2934 18.7164 20.3783 18.7153C20.4632 18.7141 20.5443 18.6797 20.6042 18.6195C20.664 18.5592 20.6978 18.4779 20.6984 18.3929C20.6989 18.308 20.6661 18.2263 20.607 18.1653ZM19.1842 16.7425L18.9508 16.5124C18.8879 16.4684 18.8115 16.4482 18.7351 16.4553C18.6587 16.4625 18.5873 16.4965 18.5336 16.5513C18.4799 16.6062 18.4474 16.6783 18.4419 16.7548C18.4364 16.8314 18.4583 16.9074 18.5036 16.9694L18.724 17.1995C18.785 17.2586 18.8667 17.2914 18.9517 17.2908C19.0366 17.2903 19.1179 17.2565 19.1782 17.1967C19.2385 17.1368 19.2729 17.0557 19.274 16.9708C19.2751 16.8859 19.2429 16.8039 19.1842 16.7425ZM19.1842 17.9352C19.1232 17.8741 19.0404 17.8399 18.9541 17.8399C18.8678 17.8399 18.785 17.8741 18.724 17.9352L18.4939 18.1653C18.4348 18.2263 18.402 18.308 18.4025 18.3929C18.403 18.4779 18.4368 18.5592 18.4967 18.6195C18.5565 18.6797 18.6376 18.7141 18.7225 18.7153C18.8075 18.7164 18.8894 18.6841 18.9508 18.6255L19.1842 18.3954C19.2144 18.3652 19.2384 18.3293 19.2548 18.2898C19.2711 18.2503 19.2796 18.208 19.2796 18.1653C19.2796 18.1225 19.2711 18.0802 19.2548 18.0407C19.2384 18.0012 19.2144 17.9654 19.1842 17.9352ZM20.5717 16.5124C20.5129 16.4621 20.4381 16.4345 20.3608 16.4345C20.2835 16.4345 20.2087 16.4621 20.15 16.5124L19.9167 16.7425C19.871 16.7878 19.8398 16.8457 19.8271 16.9088C19.8145 16.972 19.8209 17.0374 19.8456 17.0969C19.8702 17.1563 19.9121 17.2071 19.9657 17.2427C20.0194 17.2783 20.0824 17.2971 20.1468 17.2967C20.1896 17.2965 20.2321 17.2878 20.2716 17.2711C20.3111 17.2544 20.3469 17.2301 20.3769 17.1995L20.607 16.9694C20.6629 16.9041 20.6906 16.8192 20.684 16.7335C20.6773 16.6478 20.6369 16.5683 20.5717 16.5124ZM27.9756 18.1671L27.9737 18.1653L27.7404 17.9352C27.6796 17.8748 27.5975 17.8409 27.5119 17.8409C27.4262 17.8409 27.3441 17.8748 27.2834 17.9352C27.2532 17.9651 27.2291 18.0008 27.2127 18.04C27.1962 18.0793 27.1877 18.1214 27.1875 18.1639C27.1873 18.2065 27.1955 18.2487 27.2117 18.2881C27.2278 18.3275 27.2515 18.3633 27.2815 18.3935L27.2834 18.3954L27.5135 18.6255C27.5435 18.6557 27.5791 18.6797 27.6183 18.6962C27.6576 18.7126 27.6997 18.7212 27.7423 18.7213C27.7848 18.7215 27.827 18.7133 27.8664 18.6972C27.9058 18.6811 27.9416 18.6573 27.9718 18.6273L27.9737 18.6255C28.0039 18.5955 28.0279 18.5599 28.0444 18.5206C28.0608 18.4814 28.0694 18.4393 28.0696 18.3967C28.0697 18.3541 28.0615 18.312 28.0454 18.2726C28.0293 18.2332 28.0055 18.1973 27.9756 18.1671ZM26.5477 16.7425L26.3176 16.5124C26.2556 16.4593 26.1758 16.4315 26.0942 16.4347C26.0127 16.4378 25.9353 16.4716 25.8776 16.5294C25.8199 16.5871 25.7861 16.6645 25.7829 16.746C25.7797 16.8276 25.8075 16.9074 25.8606 16.9694L26.0907 17.1995C26.1207 17.2301 26.1565 17.2544 26.196 17.2711C26.2355 17.2878 26.2779 17.2965 26.3208 17.2967C26.4063 17.2955 26.4878 17.2605 26.5477 17.1995C26.608 17.1387 26.6419 17.0566 26.6419 16.971C26.6419 16.8853 26.608 16.8032 26.5477 16.7425ZM26.5496 17.937L26.5478 17.9352C26.487 17.8748 26.4049 17.8409 26.3193 17.8409C26.2336 17.8409 26.1515 17.8748 26.0908 17.9352L25.8607 18.1653C25.8016 18.2263 25.7688 18.308 25.7693 18.3929C25.7698 18.4779 25.8036 18.5592 25.8635 18.6195C25.9233 18.6797 26.0044 18.7141 26.0893 18.7153C26.1743 18.7164 26.2562 18.6841 26.3176 18.6255L26.5478 18.3954C26.6088 18.3348 26.6432 18.2525 26.6436 18.1666C26.6439 18.0806 26.6101 17.9981 26.5496 17.937ZM27.9737 16.5124C27.9437 16.4822 27.9081 16.4581 27.8688 16.4417C27.8296 16.4252 27.7875 16.4167 27.7449 16.4165C27.7023 16.4163 27.6602 16.4246 27.6208 16.4407C27.5814 16.4568 27.5456 16.4805 27.5153 16.5105L27.5135 16.5124L27.2834 16.7425C27.2377 16.7878 27.2065 16.8457 27.1938 16.9088C27.1812 16.972 27.1876 17.0374 27.2123 17.0969C27.237 17.1563 27.2788 17.2071 27.3324 17.2427C27.3861 17.2783 27.4491 17.2971 27.5135 17.2967C27.599 17.2955 27.6805 17.2605 27.7404 17.1995L27.9737 16.9694C28.0341 16.9086 28.0679 16.8265 28.0679 16.7409C28.0679 16.6552 28.0341 16.5731 27.9737 16.5124ZM8.2978 22.3364C8.21184 22.3364 8.12941 22.3705 8.06863 22.4313C8.00785 22.4921 7.9737 22.5745 7.9737 22.6605V22.9846C7.9737 23.0705 8.00785 23.153 8.06863 23.2138C8.12941 23.2745 8.21184 23.3087 8.2978 23.3087C8.38375 23.3087 8.46619 23.2745 8.52697 23.2138C8.58775 23.153 8.62189 23.0705 8.62189 22.9846V22.6605C8.62189 22.5745 8.58775 22.4921 8.52697 22.4313C8.46619 22.3705 8.38375 22.3364 8.2978 22.3364ZM8.2978 20.3238C8.21184 20.3238 8.12941 20.3579 8.06863 20.4187C8.00785 20.4795 7.9737 20.5619 7.9737 20.6478V20.9719C7.9737 21.0579 8.00785 21.1403 8.06863 21.2011C8.12941 21.2619 8.21184 21.296 8.2978 21.296C8.38375 21.296 8.46619 21.2619 8.52697 21.2011C8.58775 21.1403 8.62189 21.0579 8.62189 20.9719V20.6478C8.62189 20.5619 8.58775 20.4795 8.52697 20.4187C8.46619 20.3579 8.38375 20.3238 8.2978 20.3238ZM7.4519 21.4937H7.12781C7.04185 21.4937 6.95942 21.5279 6.89864 21.5887C6.83786 21.6494 6.80371 21.7319 6.80371 21.8178C6.80371 21.9038 6.83786 21.9862 6.89864 22.047C6.95942 22.1078 7.04185 22.1419 7.12781 22.1419H7.4519C7.53786 22.1419 7.62029 22.1078 7.68107 22.047C7.74185 21.9862 7.776 21.9038 7.776 21.8178C7.776 21.7319 7.74185 21.6494 7.68107 21.5887C7.62029 21.5279 7.53786 21.4937 7.4519 21.4937ZM9.46778 21.4937H9.14369C9.05773 21.4937 8.9753 21.5279 8.91452 21.5887C8.85374 21.6494 8.81959 21.7319 8.81959 21.8178C8.81959 21.9038 8.85374 21.9862 8.91452 22.047C8.9753 22.1078 9.05773 22.1419 9.14369 22.1419H9.46778C9.55374 22.1419 9.63618 22.1078 9.69696 22.047C9.75774 21.9862 9.79188 21.9038 9.79188 21.8178C9.79188 21.7319 9.75774 21.6494 9.69696 21.5887C9.63618 21.5279 9.55374 21.4937 9.46778 21.4937ZM15.7164 22.3364C15.6304 22.3364 15.548 22.3705 15.4872 22.4313C15.4264 22.4921 15.3923 22.5745 15.3923 22.6605V22.9846C15.3923 23.0705 15.4264 23.153 15.4872 23.2138C15.548 23.2745 15.6304 23.3087 15.7164 23.3087C15.8023 23.3087 15.8848 23.2745 15.9455 23.2138C16.0063 23.153 16.0405 23.0705 16.0405 22.9846V22.6605C16.0405 22.5745 16.0063 22.4921 15.9455 22.4313C15.8848 22.3705 15.8023 22.3364 15.7164 22.3364ZM15.7164 20.3238C15.6304 20.3238 15.548 20.3579 15.4872 20.4187C15.4264 20.4795 15.3923 20.5619 15.3923 20.6478V20.9719C15.3923 21.0579 15.4264 21.1403 15.4872 21.2011C15.548 21.2619 15.6304 21.296 15.7164 21.296C15.8023 21.296 15.8848 21.2619 15.9455 21.2011C16.0063 21.1403 16.0405 21.0579 16.0405 20.9719V20.6478C16.0405 20.5619 16.0063 20.4795 15.9455 20.4187C15.8848 20.3579 15.8023 20.3238 15.7164 20.3238ZM14.8737 21.4937H14.5496C14.4637 21.4937 14.3812 21.5279 14.3204 21.5887C14.2597 21.6494 14.2255 21.7319 14.2255 21.8178C14.2255 21.9038 14.2597 21.9862 14.3204 22.047C14.3812 22.1078 14.4637 22.1419 14.5496 22.1419H14.8737C14.9597 22.1419 15.0421 22.1078 15.1029 22.047C15.1637 21.9862 15.1978 21.9038 15.1978 21.8178C15.1978 21.7319 15.1637 21.6494 15.1029 21.5887C15.0421 21.5279 14.9597 21.4937 14.8737 21.4937ZM16.8831 21.4937H16.559C16.4731 21.4937 16.3906 21.5279 16.3298 21.5887C16.2691 21.6494 16.2349 21.7319 16.2349 21.8178C16.2349 21.9038 16.2691 21.9862 16.3298 22.047C16.3906 22.1078 16.4731 22.1419 16.559 22.1419H16.8831C16.9691 22.1419 17.0515 22.1078 17.1123 22.047C17.1731 21.9862 17.2072 21.9038 17.2072 21.8178C17.2072 21.7319 17.1731 21.6494 17.1123 21.5887C17.0515 21.5279 16.9691 21.4937 16.8831 21.4937ZM23.1349 22.3364C23.049 22.3364 22.9665 22.3705 22.9058 22.4313C22.845 22.4921 22.8108 22.5745 22.8108 22.6605V22.9846C22.8108 23.0705 22.845 23.153 22.9058 23.2138C22.9665 23.2745 23.049 23.3087 23.1349 23.3087C23.2209 23.3087 23.3033 23.2745 23.3641 23.2138C23.4249 23.153 23.459 23.0705 23.459 22.9846V22.6605C23.459 22.5745 23.4249 22.4921 23.3641 22.4313C23.3033 22.3705 23.2209 22.3364 23.1349 22.3364ZM23.1349 20.3238C23.049 20.3238 22.9665 20.3579 22.9058 20.4187C22.845 20.4795 22.8108 20.5619 22.8108 20.6478V20.9719C22.8108 21.0579 22.845 21.1403 22.9058 21.2011C22.9665 21.2619 23.049 21.296 23.1349 21.296C23.2209 21.296 23.3033 21.2619 23.3641 21.2011C23.4249 21.1403 23.459 21.0579 23.459 20.9719V20.6478C23.459 20.5619 23.4249 20.4795 23.3641 20.4187C23.3033 20.3579 23.2209 20.3238 23.1349 20.3238ZM22.2923 21.4937H21.9682C21.8822 21.4937 21.7998 21.5279 21.739 21.5887C21.6782 21.6494 21.6441 21.7319 21.6441 21.8178C21.6441 21.9038 21.6782 21.9862 21.739 22.047C21.7998 22.1078 21.8822 22.1419 21.9682 22.1419H22.2923C22.3782 22.1419 22.4607 22.1078 22.5215 22.047C22.5822 21.9862 22.6164 21.9038 22.6164 21.8178C22.6164 21.7319 22.5822 21.6494 22.5215 21.5887C22.4607 21.5279 22.3782 21.4937 22.2923 21.4937ZM24.3049 21.4937H23.9808C23.8949 21.4937 23.8124 21.5279 23.7517 21.5887C23.6909 21.6494 23.6567 21.7319 23.6567 21.8178C23.6567 21.9038 23.6909 21.9862 23.7517 22.047C23.8124 22.1078 23.8949 22.1419 23.9808 22.1419H24.3049C24.3909 22.1419 24.4733 22.1078 24.5341 22.047C24.5949 21.9862 24.629 21.9038 24.629 21.8178C24.629 21.7319 24.5949 21.6494 24.5341 21.5887C24.4733 21.5279 24.3909 21.4937 24.3049 21.4937ZM8.2978 30.8342C8.21184 30.8342 8.12941 30.8683 8.06863 30.9291C8.00785 30.9899 7.9737 31.0723 7.9737 31.1583V31.4824C7.9737 31.5684 8.00785 31.6508 8.06863 31.7116C8.12941 31.7723 8.21184 31.8065 8.2978 31.8065C8.38375 31.8065 8.46619 31.7723 8.52697 31.7116C8.58775 31.6508 8.62189 31.5684 8.62189 31.4824V31.1583C8.62189 31.0723 8.58775 30.9899 8.52697 30.9291C8.46619 30.8683 8.38375 30.8342 8.2978 30.8342ZM8.2978 28.8216C8.21184 28.8216 8.12941 28.8557 8.06863 28.9165C8.00785 28.9773 7.9737 29.0597 7.9737 29.1457V29.4698C7.9737 29.5557 8.00785 29.6381 8.06863 29.6989C8.12941 29.7597 8.21184 29.7939 8.2978 29.7939C8.38375 29.7939 8.46619 29.7597 8.52697 29.6989C8.58775 29.6381 8.62189 29.5557 8.62189 29.4698V29.1457C8.62189 29.0597 8.58775 28.9773 8.52697 28.9165C8.46619 28.8557 8.38375 28.8216 8.2978 28.8216ZM7.4519 29.9916H7.12781C7.04185 29.9916 6.95942 30.0257 6.89864 30.0865C6.83786 30.1473 6.80371 30.2297 6.80371 30.3156C6.80371 30.4016 6.83786 30.484 6.89864 30.5448C6.95942 30.6056 7.04185 30.6397 7.12781 30.6397H7.4519C7.53786 30.6397 7.62029 30.6056 7.68107 30.5448C7.74185 30.484 7.776 30.4016 7.776 30.3156C7.776 30.2297 7.74185 30.1473 7.68107 30.0865C7.62029 30.0257 7.53786 29.9916 7.4519 29.9916ZM9.46778 29.9916H9.14369C9.05773 29.9916 8.9753 30.0257 8.91452 30.0865C8.85374 30.1473 8.81959 30.2297 8.81959 30.3156C8.81959 30.4016 8.85374 30.484 8.91452 30.5448C8.9753 30.6056 9.05773 30.6397 9.14369 30.6397H9.46778C9.55374 30.6397 9.63618 30.6056 9.69696 30.5448C9.75774 30.484 9.79188 30.4016 9.79188 30.3156C9.79188 30.2297 9.75774 30.1473 9.69696 30.0865C9.63618 30.0257 9.55374 29.9916 9.46778 29.9916ZM15.7164 30.8342C15.6304 30.8342 15.548 30.8683 15.4872 30.9291C15.4264 30.9899 15.3923 31.0723 15.3923 31.1583V31.4824C15.3923 31.5684 15.4264 31.6508 15.4872 31.7116C15.548 31.7723 15.6304 31.8065 15.7164 31.8065C15.8023 31.8065 15.8848 31.7723 15.9455 31.7116C16.0063 31.6508 16.0405 31.5684 16.0405 31.4824V31.1583C16.0405 31.0723 16.0063 30.9899 15.9455 30.9291C15.8848 30.8683 15.8023 30.8342 15.7164 30.8342ZM15.7164 28.8216C15.6304 28.8216 15.548 28.8557 15.4872 28.9165C15.4264 28.9773 15.3923 29.0597 15.3923 29.1457V29.4698C15.3923 29.5557 15.4264 29.6381 15.4872 29.6989C15.548 29.7597 15.6304 29.7939 15.7164 29.7939C15.8023 29.7939 15.8848 29.7597 15.9455 29.6989C16.0063 29.6381 16.0405 29.5557 16.0405 29.4698V29.1457C16.0405 29.0597 16.0063 28.9773 15.9455 28.9165C15.8848 28.8557 15.8023 28.8216 15.7164 28.8216ZM14.8737 29.9916H14.5496C14.4637 29.9916 14.3812 30.0257 14.3204 30.0865C14.2597 30.1473 14.2255 30.2297 14.2255 30.3156C14.2255 30.4016 14.2597 30.484 14.3204 30.5448C14.3812 30.6056 14.4637 30.6397 14.5496 30.6397H14.8737C14.9597 30.6397 15.0421 30.6056 15.1029 30.5448C15.1637 30.484 15.1978 30.4016 15.1978 30.3156C15.1978 30.2297 15.1637 30.1473 15.1029 30.0865C15.0421 30.0257 14.9597 29.9916 14.8737 29.9916ZM16.8831 29.9916H16.559C16.4731 29.9916 16.3906 30.0257 16.3298 30.0865C16.2691 30.1473 16.2349 30.2297 16.2349 30.3156C16.2349 30.4016 16.2691 30.484 16.3298 30.5448C16.3906 30.6056 16.4731 30.6397 16.559 30.6397H16.8831C16.9691 30.6397 17.0515 30.6056 17.1123 30.5448C17.1731 30.484 17.2072 30.4016 17.2072 30.3156C17.2072 30.2297 17.1731 30.1473 17.1123 30.0865C17.0515 30.0257 16.9691 29.9916 16.8831 29.9916ZM23.1349 30.8342C23.049 30.8342 22.9665 30.8683 22.9058 30.9291C22.845 30.9899 22.8108 31.0723 22.8108 31.1583V31.4824C22.8108 31.5684 22.845 31.6508 22.9058 31.7116C22.9665 31.7723 23.049 31.8065 23.1349 31.8065C23.2209 31.8065 23.3033 31.7723 23.3641 31.7116C23.4249 31.6508 23.459 31.5684 23.459 31.4824V31.1583C23.459 31.0723 23.4249 30.9899 23.3641 30.9291C23.3033 30.8683 23.2209 30.8342 23.1349 30.8342ZM23.1349 28.8216C23.049 28.8216 22.9665 28.8557 22.9058 28.9165C22.845 28.9773 22.8108 29.0597 22.8108 29.1457V29.4698C22.8108 29.5557 22.845 29.6381 22.9058 29.6989C22.9665 29.7597 23.049 29.7939 23.1349 29.7939C23.2209 29.7939 23.3033 29.7597 23.3641 29.6989C23.4249 29.6381 23.459 29.5557 23.459 29.4698V29.1457C23.459 29.0597 23.4249 28.9773 23.3641 28.9165C23.3033 28.8557 23.2209 28.8216 23.1349 28.8216ZM22.2923 29.9916H21.9682C21.8822 29.9916 21.7998 30.0257 21.739 30.0865C21.6782 30.1473 21.6441 30.2297 21.6441 30.3156C21.6441 30.4016 21.6782 30.484 21.739 30.5448C21.7998 30.6056 21.8822 30.6397 21.9682 30.6397H22.2923C22.3782 30.6397 22.4607 30.6056 22.5215 30.5448C22.5822 30.484 22.6164 30.4016 22.6164 30.3156C22.6164 30.2297 22.5822 30.1473 22.5215 30.0865C22.4607 30.0257 22.3782 29.9916 22.2923 29.9916ZM24.3049 29.9916H23.9808C23.8949 29.9916 23.8124 30.0257 23.7517 30.0865C23.6909 30.1473 23.6567 30.2297 23.6567 30.3156C23.6567 30.4016 23.6909 30.484 23.7517 30.5448C23.8124 30.6056 23.8949 30.6397 23.9808 30.6397H24.3049C24.3909 30.6397 24.4733 30.6056 24.5341 30.5448C24.5949 30.484 24.629 30.4016 24.629 30.3156C24.629 30.2297 24.5949 30.1473 24.5341 30.0865C24.4733 30.0257 24.3909 29.9916 24.3049 29.9916ZM30.5567 30.8342C30.4708 30.8342 30.3884 30.8683 30.3276 30.9291C30.2668 30.9899 30.2326 31.0723 30.2326 31.1583V31.4824C30.2326 31.5684 30.2668 31.6508 30.3276 31.7116C30.3884 31.7723 30.4708 31.8065 30.5567 31.8065C30.6427 31.8065 30.7251 31.7723 30.7859 31.7116C30.8467 31.6508 30.8808 31.5684 30.8808 31.4824V31.1583C30.8808 31.0723 30.8467 30.9899 30.7859 30.9291C30.7251 30.8683 30.6427 30.8342 30.5567 30.8342ZM29.7109 29.9916H29.3868C29.3008 29.9916 29.2184 30.0257 29.1576 30.0865C29.0968 30.1473 29.0627 30.2297 29.0627 30.3156C29.0627 30.4016 29.0968 30.484 29.1576 30.5448C29.2184 30.6056 29.3008 30.6397 29.3868 30.6397H29.7109C29.7968 30.6397 29.8792 30.6056 29.94 30.5448C30.0008 30.484 30.035 30.4016 30.035 30.3156C30.035 30.2297 30.0008 30.1473 29.94 30.0865C29.8792 30.0257 29.7968 29.9916 29.7109 29.9916ZM31.7235 29.9916H31.3994C31.3134 29.9916 31.231 30.0257 31.1702 30.0865C31.1094 30.1473 31.0753 30.2297 31.0753 30.3156C31.0753 30.4016 31.1094 30.484 31.1702 30.5448C31.231 30.6056 31.3134 30.6397 31.3994 30.6397H31.7235C31.8095 30.6397 31.8919 30.6056 31.9527 30.5448C32.0134 30.484 32.0476 30.4016 32.0476 30.3156C32.0476 30.2297 32.0134 30.1473 31.9527 30.0865C31.8919 30.0257 31.8095 29.9916 31.7235 29.9916ZM13.2403 26.6631L13.0102 26.433C12.9482 26.3799 12.8684 26.3521 12.7868 26.3553C12.7053 26.3584 12.6279 26.3922 12.5702 26.45C12.5125 26.5077 12.4786 26.5851 12.4755 26.6666C12.4723 26.7482 12.5001 26.8279 12.5532 26.8899L12.7833 27.1233C12.8135 27.1533 12.8493 27.1771 12.8887 27.1932C12.9281 27.2094 12.9703 27.2176 13.0129 27.2175C13.0555 27.2173 13.0976 27.2088 13.1369 27.1923C13.1762 27.1759 13.2119 27.1519 13.2419 27.1217C13.2719 27.0915 13.2957 27.0556 13.3118 27.0162C13.328 26.9768 13.3362 26.9346 13.3361 26.892C13.3359 26.8495 13.3274 26.8073 13.3109 26.768C13.2945 26.7287 13.2705 26.6931 13.2403 26.6631ZM11.8304 25.2403L11.6003 25.0102C11.5704 24.98 11.5347 24.9559 11.4955 24.9395C11.4562 24.923 11.4141 24.9145 11.3715 24.9143C11.329 24.9141 11.2868 24.9224 11.2474 24.9385C11.208 24.9546 11.1722 24.9783 11.142 25.0083L11.1401 25.0102C11.0798 25.0709 11.0459 25.1531 11.0459 25.2387C11.0459 25.3243 11.0798 25.4064 11.1401 25.4672L11.3735 25.6973C11.4333 25.7583 11.5149 25.7933 11.6003 25.7945C11.6647 25.7949 11.7277 25.7761 11.7814 25.7405C11.835 25.7049 11.8769 25.6541 11.9015 25.5947C11.9262 25.5352 11.9327 25.4698 11.92 25.4067C11.9073 25.3435 11.8762 25.2856 11.8304 25.2403ZM11.7951 26.433C11.7364 26.3827 11.6616 26.3551 11.5843 26.3551C11.507 26.3551 11.4323 26.3827 11.3736 26.433L11.1402 26.6631C11.11 26.6931 11.086 26.7287 11.0695 26.7679C11.0531 26.8072 11.0445 26.8493 11.0443 26.8919C11.0442 26.9344 11.0524 26.9766 11.0685 27.016C11.0846 27.0554 11.1084 27.0912 11.1383 27.1214L11.1402 27.1233C11.1702 27.1535 11.2058 27.1775 11.2451 27.194C11.2843 27.2104 11.3264 27.219 11.369 27.2192C11.4116 27.2193 11.4537 27.2111 11.4931 27.195C11.5325 27.1789 11.5683 27.1551 11.5986 27.1252L11.6004 27.1233L11.8305 26.8899C11.8582 26.8576 11.8793 26.8202 11.8925 26.7797C11.9057 26.7392 11.9108 26.6966 11.9075 26.6541C11.9042 26.6117 11.8926 26.5703 11.8733 26.5324C11.854 26.4944 11.8275 26.4607 11.7951 26.433ZM13.2049 25.0102C13.1462 24.9599 13.0714 24.9322 12.9941 24.9322C12.9168 24.9322 12.842 24.9599 12.7833 25.0102L12.5532 25.2403C12.4928 25.301 12.4589 25.3832 12.4589 25.4688C12.4589 25.5544 12.4928 25.6365 12.5532 25.6973C12.613 25.7583 12.6946 25.7933 12.7801 25.7945C12.8229 25.7943 12.8654 25.7856 12.9049 25.7689C12.9443 25.7523 12.9801 25.7279 13.0102 25.6973L13.2403 25.4672C13.2962 25.4019 13.3239 25.3171 13.3172 25.2314C13.3106 25.1457 13.2702 25.0661 13.2049 25.0102ZM20.607 26.6631L20.3769 26.433C20.3469 26.4028 20.3113 26.3787 20.272 26.3623C20.2328 26.3458 20.1906 26.3373 20.1481 26.3371C20.1055 26.3369 20.0633 26.3451 20.024 26.3613C19.9846 26.3774 19.9487 26.4011 19.9185 26.4311L19.9167 26.433C19.8563 26.4937 19.8224 26.5758 19.8224 26.6615C19.8224 26.7471 19.8563 26.8292 19.9167 26.8899L20.15 27.1233C20.1802 27.1533 20.2161 27.1771 20.2555 27.1932C20.2949 27.2094 20.3371 27.2176 20.3796 27.2175C20.4222 27.2173 20.4644 27.2088 20.5036 27.1923C20.5429 27.1759 20.5786 27.1519 20.6086 27.1217C20.6386 27.0915 20.6624 27.0556 20.6785 27.0162C20.6947 26.9768 20.7029 26.9346 20.7028 26.892C20.7026 26.8495 20.6941 26.8073 20.6776 26.768C20.6612 26.7287 20.6372 26.6931 20.607 26.6631ZM19.1842 25.2403L18.9508 25.0102C18.9231 24.9722 18.8874 24.9407 18.8462 24.9179C18.805 24.8952 18.7594 24.8816 18.7124 24.8782C18.6655 24.8749 18.6184 24.8818 18.5744 24.8985C18.5304 24.9151 18.4905 24.9412 18.4576 24.9748C18.4247 25.0084 18.3995 25.0488 18.3838 25.0932C18.3681 25.1375 18.3622 25.1848 18.3666 25.2316C18.3709 25.2785 18.3855 25.3238 18.4091 25.3645C18.4328 25.4052 18.465 25.4402 18.5036 25.4672L18.724 25.6973C18.785 25.7564 18.8667 25.7892 18.9517 25.7887C19.0366 25.7881 19.1179 25.7543 19.1782 25.6945C19.2385 25.6346 19.2729 25.5535 19.274 25.4686C19.2751 25.3837 19.2429 25.3017 19.1842 25.2403ZM19.1842 26.4232C19.1224 26.3635 19.0394 26.3307 18.9535 26.3322C18.8675 26.3336 18.7857 26.3692 18.7259 26.4309L18.724 26.433L18.4939 26.6631C18.4475 26.7258 18.4253 26.8032 18.4314 26.881C18.4375 26.9588 18.4714 27.0318 18.527 27.0865C18.5825 27.1413 18.656 27.1742 18.7339 27.1792C18.8117 27.1841 18.8888 27.1608 18.9508 27.1136L19.1842 26.8802C19.2446 26.8195 19.2784 26.7374 19.2784 26.6517C19.2784 26.5661 19.2446 26.484 19.1842 26.4232ZM20.5717 25.0102C20.5129 24.9599 20.4382 24.9322 20.3608 24.9322C20.2835 24.9322 20.2087 24.9599 20.15 25.0102L19.9167 25.2403C19.871 25.2856 19.8398 25.3435 19.8271 25.4067C19.8145 25.4698 19.8209 25.5352 19.8456 25.5947C19.8702 25.6541 19.9121 25.7049 19.9657 25.7405C20.0194 25.7761 20.0824 25.7949 20.1468 25.7945C20.1896 25.7943 20.2321 25.7856 20.2716 25.7689C20.3111 25.7523 20.3469 25.7279 20.3769 25.6973L20.607 25.4672C20.6629 25.4019 20.6906 25.3171 20.684 25.2314C20.6773 25.1457 20.6369 25.0661 20.5717 25.0102ZM27.9756 26.6649L27.9737 26.6631L27.7404 26.433C27.6784 26.3799 27.5986 26.3521 27.517 26.3553C27.4355 26.3584 27.3581 26.3922 27.3004 26.45C27.2426 26.5077 27.2088 26.5851 27.2057 26.6666C27.2025 26.7482 27.2303 26.8279 27.2834 26.8899L27.5135 27.1233C27.5435 27.1535 27.5791 27.1775 27.6183 27.194C27.6576 27.2104 27.6997 27.219 27.7423 27.2192C27.7848 27.2193 27.827 27.2111 27.8664 27.195C27.9058 27.1789 27.9416 27.1551 27.9718 27.1252L27.9737 27.1233C28.0039 27.0933 28.0279 27.0577 28.0444 27.0184C28.0608 26.9792 28.0694 26.9371 28.0696 26.8945C28.0697 26.8519 28.0615 26.8098 28.0454 26.7704C28.0293 26.731 28.0055 26.6952 27.9756 26.6649ZM26.5477 25.2403L26.3176 25.0102C26.2556 24.9571 26.1758 24.9293 26.0942 24.9325C26.0127 24.9356 25.9353 24.9695 25.8776 25.0272C25.8199 25.0849 25.7861 25.1623 25.7829 25.2438C25.7797 25.3254 25.8075 25.4052 25.8606 25.4672L26.0907 25.6973C26.1207 25.7279 26.1565 25.7523 26.196 25.7689C26.2355 25.7856 26.2779 25.7943 26.3208 25.7945C26.4063 25.7933 26.4878 25.7583 26.5477 25.6973C26.608 25.6365 26.6419 25.5544 26.6419 25.4688C26.6419 25.3832 26.608 25.301 26.5477 25.2403ZM26.5123 26.4232C26.4536 26.3729 26.3788 26.3453 26.3015 26.3453C26.2242 26.3453 26.1494 26.3729 26.0907 26.4232V26.433L25.8606 26.6631C25.8142 26.7258 25.792 26.8032 25.7981 26.881C25.8042 26.9588 25.8381 27.0318 25.8937 27.0865C25.9492 27.1413 26.0227 27.1742 26.1006 27.1792C26.1784 27.1841 26.2555 27.1608 26.3176 27.1136L26.5477 26.8802C26.6036 26.8149 26.6313 26.7301 26.6247 26.6444C26.618 26.5587 26.5776 26.4792 26.5123 26.4232ZM27.9737 25.0102C27.9437 24.98 27.9081 24.9559 27.8688 24.9395C27.8296 24.923 27.7875 24.9145 27.7449 24.9143C27.7023 24.9141 27.6602 24.9224 27.6208 24.9385C27.5814 24.9546 27.5456 24.9783 27.5153 25.0083L27.5135 25.0102L27.2834 25.2403C27.2377 25.2856 27.2065 25.3435 27.1938 25.4067C27.1812 25.4698 27.1876 25.5352 27.2123 25.5947C27.237 25.6541 27.2788 25.7049 27.3324 25.7405C27.3861 25.7761 27.4491 25.7949 27.5135 25.7945C27.599 25.7933 27.6805 25.7583 27.7404 25.6973L27.9737 25.4672C28.0341 25.4064 28.0679 25.3243 28.0679 25.2387C28.0679 25.1531 28.0341 25.0709 27.9737 25.0102ZM36.3289 8.73406H33.1495C33.0658 8.73741 32.9867 8.77303 32.9287 8.83345C32.8707 8.89387 32.8383 8.9744 32.8384 9.05815C32.8384 9.14411 32.8725 9.22654 32.9333 9.28732C32.9941 9.3481 33.0765 9.38225 33.1625 9.38225H36.3289C36.4149 9.38225 36.4973 9.3481 36.5581 9.28732C36.6189 9.22654 36.653 9.14411 36.653 9.05815C36.653 8.9722 36.6189 8.88976 36.5581 8.82898C36.4973 8.7682 36.4149 8.73406 36.3289 8.73406ZM31.2795 8.73406H30.573C30.487 8.73406 30.4046 8.7682 30.3438 8.82898C30.283 8.88976 30.2489 8.9722 30.2489 9.05815C30.2489 9.14411 30.283 9.22654 30.3438 9.28732C30.4046 9.3481 30.487 9.38225 30.573 9.38225H31.2795C31.3654 9.38225 31.4479 9.3481 31.5087 9.28732C31.5694 9.22654 31.6036 9.14411 31.6036 9.05815C31.6036 8.9722 31.5694 8.88976 31.5087 8.82898C31.4479 8.7682 31.3654 8.73406 31.2795 8.73406Z" fill="black"/>
</g>
</g>
</g>
<defs>
<clipPath id="clip0_1_2378">
<rect width="40" height="40" fill="white" transform="translate(0.5 0.625488)"/>
</clipPath>
<clipPath id="clip1_1_2378">
<rect width="40" height="40" fill="white" transform="translate(0.5 0.625488)"/>
</clipPath>
<clipPath id="clip2_1_2378">
<rect width="40" height="40" fill="white" transform="translate(0.5 0.625488)"/>
</clipPath>
</defs>
</svg>
