<svg width="25" height="25" viewBox="0 0 25 25" fill="none" xmlns="http://www.w3.org/2000/svg">
<g clip-path="url(#clip0_1_2599)">
<path d="M7.52985 0.719019C6.25285 0.779019 5.38085 0.983019 4.61985 1.28202C3.81919 1.58442 3.09428 2.05814 2.49585 2.67002C1.88659 3.27019 1.41564 3.99607 1.11585 4.79702C0.82085 5.56102 0.61985 6.43502 0.56385 7.71102C0.50785 8.98902 0.49485 9.39902 0.50085 12.658C0.50785 15.917 0.52185 16.325 0.58385 17.605C0.64485 18.882 0.84785 19.754 1.14685 20.516C1.45485 21.305 1.86685 21.973 2.53485 22.639C3.13547 23.2487 3.8621 23.7197 4.66385 24.019C5.42685 24.314 6.29985 24.515 7.57685 24.571C8.85485 24.627 9.26585 24.64 12.5239 24.634C15.7809 24.627 16.1918 24.613 17.4708 24.552C18.7509 24.492 19.6178 24.287 20.3808 23.989C21.1811 23.6863 21.9056 23.2126 22.5038 22.601C23.1133 22.0002 23.5842 21.2736 23.8839 20.472C24.1789 19.709 24.3798 18.836 24.4348 17.56C24.4908 16.28 24.5048 15.87 24.4978 12.612C24.4918 9.35402 24.4778 8.94502 24.4168 7.66502C24.3568 6.38502 24.1528 5.51702 23.8528 4.75402C23.5501 3.95407 23.0768 3.22962 22.4658 2.63102C21.8658 2.02111 21.1395 1.55007 20.3378 1.25102C19.5738 0.957019 18.7018 0.755019 17.4238 0.701019C16.1468 0.644019 15.7359 0.629019 12.4769 0.635019C9.21785 0.643019 8.80985 0.656019 7.52985 0.719019ZM7.66985 22.412C6.49985 22.362 5.86485 22.167 5.44185 22.004C4.92036 21.8122 4.44823 21.5064 4.05985 21.109C3.66006 20.7232 3.35243 20.2522 3.15985 19.731C2.99485 19.308 2.79685 18.673 2.74285 17.503C2.68285 16.239 2.67085 15.859 2.66285 12.655C2.65685 9.45102 2.66885 9.07202 2.72385 7.80702C2.77385 6.63802 2.96985 6.00202 3.13185 5.57902C3.34785 5.01802 3.60885 4.61902 4.02685 4.19702C4.41318 3.79737 4.88449 3.48978 5.40585 3.29702C5.82885 3.13202 6.46285 2.93602 7.63285 2.88002C8.89785 2.82002 9.27685 2.80802 12.4809 2.80002C15.6839 2.79402 16.0638 2.80602 17.3308 2.86202C18.4988 2.91202 19.1348 3.10602 19.5578 3.27002C20.1178 3.48602 20.5178 3.74502 20.9398 4.16502C21.3608 4.58502 21.6208 4.98202 21.8398 5.54302C22.0049 5.96502 22.2018 6.59902 22.2568 7.77002C22.3168 9.03502 22.3308 9.41502 22.3368 12.618C22.3418 15.821 22.3308 16.201 22.2758 17.466C22.2248 18.636 22.0308 19.271 21.8678 19.696C21.6518 20.256 21.3909 20.656 20.9718 21.076C20.5858 21.4755 20.1149 21.7831 19.5938 21.976C19.1718 22.141 18.5358 22.338 17.3678 22.394C16.1018 22.454 15.7228 22.466 12.5178 22.473C9.31385 22.48 8.93585 22.466 7.66985 22.412ZM17.4528 6.22102C17.4532 6.50587 17.5381 6.7842 17.6967 7.02081C17.8553 7.25741 18.0805 7.44167 18.3439 7.55026C18.6072 7.65886 18.8968 7.68691 19.1761 7.63088C19.4554 7.57485 19.7118 7.43725 19.9128 7.23548C20.1139 7.03371 20.2506 6.77685 20.3057 6.49737C20.3608 6.2179 20.3317 5.92837 20.2222 5.66541C20.1127 5.40246 19.9276 5.17789 19.6905 5.02011C19.4533 4.86233 19.1747 4.77843 18.8898 4.77902C18.5081 4.77981 18.1423 4.93215 17.8728 5.20255C17.6034 5.47295 17.4523 5.83928 17.4528 6.22102ZM6.33885 12.647C6.34203 14.2812 6.99424 15.8471 8.152 17.0003C9.30975 18.1536 10.8782 18.7997 12.5124 18.7965C14.1465 18.7933 15.7124 18.1411 16.8657 16.9834C18.0189 15.8256 18.665 14.2572 18.6618 12.623C18.6383 11.0024 17.9771 9.45625 16.8216 8.31964C15.6661 7.18302 14.1093 6.54745 12.4885 6.5506C10.8677 6.55376 9.31336 7.1954 8.16229 8.3365C7.01122 9.47761 6.3561 11.0263 6.33885 12.647ZM8.49985 12.643C8.49827 11.8519 8.73132 11.0781 9.16953 10.4194C9.60774 9.76072 10.2314 9.24679 10.9617 8.94258C11.692 8.63837 12.4961 8.55754 13.2724 8.71033C14.0486 8.86312 14.7621 9.24266 15.3226 9.80095C15.8831 10.3592 16.2655 11.0712 16.4214 11.8468C16.5773 12.6224 16.4997 13.4269 16.1984 14.1584C15.8971 14.8899 15.3857 15.5156 14.7288 15.9565C14.0719 16.3973 13.299 16.6334 12.5079 16.635C11.9826 16.6361 11.4622 16.5336 10.9765 16.3336C10.4908 16.1336 10.0493 15.8398 9.67708 15.4691C9.3049 15.0984 9.00938 14.658 8.80739 14.1731C8.6054 13.6882 8.5009 13.1683 8.49985 12.643Z" fill="white"/>
</g>
<defs>
<clipPath id="clip0_1_2599">
<rect width="24" height="24" fill="white" transform="translate(0.5 0.634766)"/>
</clipPath>
</defs>
</svg>
