<svg width="25" height="25" viewBox="0 0 25 25" fill="none" xmlns="http://www.w3.org/2000/svg">
<g clip-path="url(#clip0_1_2602)">
<path d="M13.0251 0.654766C14.3351 0.634766 15.6351 0.644766 16.9351 0.634766C17.0151 2.16477 17.5651 3.72477 18.6851 4.80477C19.8051 5.91477 21.3851 6.42477 22.9251 6.59477V10.6248C21.4851 10.5748 20.0351 10.2748 18.7251 9.65477C18.1551 9.39477 17.6251 9.06477 17.1051 8.72477C17.0951 11.6448 17.1151 14.5648 17.0851 17.4748C17.0051 18.8748 16.5451 20.2648 15.7351 21.4148C14.4251 23.3348 12.1551 24.5848 9.82512 24.6248C8.39512 24.7048 6.96512 24.3148 5.74512 23.5948C3.72512 22.4048 2.30512 20.2248 2.09512 17.8848C2.07512 17.3848 2.06512 16.8848 2.08512 16.3948C2.26512 14.4948 3.20512 12.6748 4.66512 11.4348C6.32512 9.99477 8.64512 9.30477 10.8151 9.71477C10.8351 11.1948 10.7751 12.6748 10.7751 14.1548C9.78512 13.8348 8.62512 13.9248 7.75512 14.5248C7.12512 14.9348 6.64512 15.5648 6.39512 16.2748C6.18512 16.7848 6.24512 17.3448 6.25512 17.8848C6.49512 19.5248 8.07512 20.9048 9.75512 20.7548C10.8751 20.7448 11.9451 20.0948 12.5251 19.1448C12.7151 18.8148 12.9251 18.4748 12.9351 18.0848C13.0351 16.2948 12.9951 14.5148 13.0051 12.7248C13.0151 8.69477 12.9951 4.67477 13.0251 0.654766Z" fill="white"/>
</g>
<defs>
<clipPath id="clip0_1_2602">
<rect width="24" height="24" fill="white" transform="translate(0.5 0.634766)"/>
</clipPath>
</defs>
</svg>
